<?xml version="1.0" encoding="utf-8"?>
<!-- Generator: Adobe Illustrator 16.0.0, SVG Export Plug-In . SVG Version: 6.00 Build 0)  -->
<!DOCTYPE svg PUBLIC "-//W3C//DTD SVG 1.1//EN" "http://www.w3.org/Graphics/SVG/1.1/DTD/svg11.dtd">
<svg version="1.1"
	 id="svg2" xmlns:cc="http://creativecommons.org/ns#" xmlns:svg="http://www.w3.org/2000/svg" xmlns:rdf="http://www.w3.org/1999/02/22-rdf-syntax-ns#" xmlns:sodipodi="http://sodipodi.sourceforge.net/DTD/sodipodi-0.dtd" xmlns:dc="http://purl.org/dc/elements/1.1/" xmlns:inkscape="http://www.inkscape.org/namespaces/inkscape" sodipodi:docname="google-play-badge.svg" inkscape:version="0.91 r13725"
	 xmlns="http://www.w3.org/2000/svg" xmlns:xlink="http://www.w3.org/1999/xlink" x="0px" y="0px" width="135.717px"
	 height="40.02px" viewBox="0 0 135.717 40.02" enable-background="new 0 0 135.717 40.02" xml:space="preserve">
<sodipodi:namedview  id="namedview4" inkscape:cy="29.61582" inkscape:cx="93.965168" inkscape:zoom="7.6276974" showgrid="false" guidetolerance="10" gridtolerance="10" objecttolerance="10" borderopacity="1" bordercolor="#666666" pagecolor="#ffffff" inkscape:current-layer="g10" inkscape:window-y="-8" inkscape:window-x="-8" inkscape:window-height="705" inkscape:window-width="1366" inkscape:pageshadow="2" inkscape:pageopacity="0" inkscape:window-maximized="1">
	</sodipodi:namedview>
<path d="M130.54,1.107c2.32,0,4.208,1.866,4.208,4.16v29.722c0,2.294-1.888,4.16-4.208,4.16H5.24c-2.32,0-4.209-1.866-4.209-4.16
	V5.267c0-2.294,1.889-4.16,4.209-4.16H130.54"/>
<g id="Shape_2_" transform="translate(10.867901, 5.171017)">
	<path fill="#FFFFFF" d="M19.689,14.704c-0.028-3.236,2.634-4.809,2.756-4.883C20.938,7.61,18.6,7.308,17.778,7.284
		c-1.963-0.207-3.867,1.181-4.868,1.181c-1.02,0-2.56-1.16-4.219-1.126c-2.137,0.033-4.135,1.275-5.23,3.207
		c-2.262,3.938-0.575,9.724,1.592,12.907c1.084,1.56,2.351,3.301,4.009,3.239c1.621-0.068,2.228-1.041,4.185-1.041
		c1.939,0,2.508,1.041,4.199,1.001c1.74-0.028,2.836-1.566,3.883-3.138c1.252-1.788,1.755-3.547,1.775-3.638
		C23.063,19.863,19.723,18.582,19.689,14.704L19.689,14.704z"/>
	<path fill="#FFFFFF" d="M16.495,5.19c0.873-1.098,1.47-2.59,1.305-4.105c-1.264,0.057-2.842,0.879-3.751,1.952
		c-0.805,0.946-1.523,2.496-1.338,3.955C14.129,7.097,15.586,6.27,16.495,5.19L16.495,5.19z"/>
</g>
<g id="Shape_3_" transform="translate(35.992618, 15.513052)">
	<path fill="#FFFFFF" d="M18.037,16.125h-2.267l-1.242-3.924h-4.315l-1.183,3.924H6.824l4.275-13.357h2.642L18.037,16.125
		L18.037,16.125z M14.155,10.556l-1.123-3.488c-0.119-0.356-0.341-1.195-0.67-2.516h-0.04c-0.131,0.568-0.341,1.407-0.63,2.516
		l-1.104,3.488H14.155L14.155,10.556z"/>
	<path fill="#FFFFFF" d="M29.033,11.191c0,1.638-0.439,2.934-1.32,3.884c-0.788,0.846-1.768,1.269-2.936,1.269
		c-1.263,0-2.168-0.455-2.721-1.367h-0.04v5.075h-2.128V9.664c0-1.03-0.026-2.087-0.078-3.171h1.871L21.8,8.02h0.039
		c0.71-1.15,1.787-1.725,3.232-1.725c1.13,0,2.073,0.448,2.827,1.347C28.656,8.543,29.033,9.725,29.033,11.191L29.033,11.191z
		 M26.865,11.269c0-0.937-0.209-1.709-0.63-2.318c-0.46-0.635-1.078-0.951-1.853-0.951c-0.525,0-1.002,0.176-1.429,0.525
		c-0.427,0.351-0.706,0.81-0.837,1.377c-0.066,0.266-0.099,0.481-0.099,0.653v1.605c0,0.701,0.213,1.291,0.641,1.774
		c0.427,0.483,0.982,0.725,1.664,0.725c0.802,0,1.426-0.312,1.872-0.933C26.642,13.106,26.865,12.287,26.865,11.269L26.865,11.269z"
		/>
	<path fill="#FFFFFF" d="M40.048,11.191c0,1.638-0.439,2.934-1.32,3.884c-0.787,0.846-1.766,1.269-2.936,1.269
		c-1.262,0-2.168-0.455-2.719-1.367h-0.041v5.075h-2.127V9.664c0-1.03-0.027-2.087-0.078-3.171h1.871l0.119,1.526h0.039
		c0.709-1.15,1.785-1.725,3.232-1.725c1.129,0,2.072,0.448,2.828,1.347C39.671,8.543,40.048,9.725,40.048,11.191L40.048,11.191z
		 M37.88,11.269c0-0.937-0.209-1.709-0.631-2.318c-0.461-0.635-1.076-0.951-1.852-0.951c-0.527,0-1.002,0.176-1.43,0.525
		c-0.426,0.351-0.705,0.81-0.836,1.377c-0.064,0.266-0.1,0.481-0.1,0.653v1.605c0,0.701,0.215,1.291,0.641,1.774
		c0.428,0.481,0.982,0.725,1.666,0.725c0.801,0,1.424-0.312,1.871-0.933S37.88,12.287,37.88,11.269L37.88,11.269z"/>
	<path fill="#FFFFFF" d="M52.366,12.379c0,1.137-0.393,2.061-1.18,2.774c-0.865,0.78-2.07,1.169-3.617,1.169
		c-1.431,0-2.575-0.276-3.444-0.831l0.494-1.784c0.934,0.568,1.958,0.854,3.075,0.854c0.803,0,1.426-0.184,1.875-0.546
		c0.445-0.363,0.668-0.853,0.668-1.459c0-0.543-0.184-0.999-0.553-1.37c-0.365-0.37-0.979-0.714-1.832-1.032
		c-2.325-0.873-3.487-2.15-3.487-3.831c0-1.099,0.408-1.998,1.223-2.699c0.813-0.701,1.896-1.052,3.253-1.052
		c1.209,0,2.211,0.212,3.014,0.635l-0.531,1.745c-0.75-0.41-1.596-0.615-2.543-0.615c-0.748,0-1.334,0.186-1.752,0.556
		c-0.355,0.33-0.532,0.732-0.532,1.208c0,0.527,0.202,0.965,0.61,1.308c0.354,0.317,0.998,0.661,1.93,1.032
		c1.145,0.462,1.984,1.003,2.523,1.623C52.096,10.682,52.366,11.455,52.366,12.379L52.366,12.379z"/>
	<path fill="#FFFFFF" d="M59.401,8.099h-2.346v4.677c0,1.19,0.414,1.784,1.242,1.784c0.381,0,0.695-0.033,0.945-0.101l0.059,1.627
		c-0.42,0.156-0.971,0.236-1.654,0.236c-0.84,0-1.498-0.258-1.973-0.773c-0.471-0.517-0.709-1.381-0.709-2.597V8.097h-1.398V6.491
		h1.398V4.728l2.09-0.634v2.396h2.346V8.099L59.401,8.099z"/>
	<path fill="#FFFFFF" d="M69.985,11.23c0,1.48-0.422,2.696-1.264,3.647c-0.879,0.979-2.049,1.466-3.508,1.466
		c-1.404,0-2.523-0.469-3.359-1.406c-0.834-0.937-1.25-2.121-1.25-3.547c0-1.493,0.428-2.715,1.289-3.666
		c0.859-0.951,2.02-1.428,3.479-1.428c1.404,0,2.537,0.469,3.389,1.407C69.576,8.615,69.985,9.789,69.985,11.23L69.985,11.23z
		 M67.776,11.3c0-0.89-0.189-1.651-0.57-2.286c-0.447-0.77-1.084-1.152-1.91-1.152c-0.855,0-1.506,0.385-1.951,1.152
		c-0.383,0.637-0.57,1.41-0.57,2.325c0,0.889,0.188,1.65,0.57,2.285c0.459,0.77,1.102,1.151,1.932,1.151
		c0.813,0,1.449-0.392,1.91-1.172C67.578,12.955,67.776,12.187,67.776,11.3L67.776,11.3z"/>
	<path fill="#FFFFFF" d="M76.901,8.375c-0.211-0.039-0.436-0.06-0.672-0.06c-0.748,0-1.326,0.284-1.734,0.854
		c-0.354,0.502-0.531,1.137-0.531,1.902v5.054h-2.127l0.02-6.599c0-1.11-0.027-2.121-0.078-3.032h1.852l0.078,1.844h0.061
		c0.223-0.635,0.578-1.145,1.063-1.526c0.475-0.345,0.986-0.517,1.539-0.517c0.195,0,0.373,0.014,0.531,0.039V8.375L76.901,8.375z"
		/>
	<path fill="#FFFFFF" d="M86.416,10.854c0,0.384-0.023,0.706-0.076,0.971h-6.385c0.025,0.951,0.334,1.68,0.928,2.181
		c0.537,0.45,1.232,0.674,2.086,0.674c0.945,0,1.809-0.151,2.584-0.456l0.334,1.485c-0.908,0.398-1.977,0.596-3.211,0.596
		c-1.486,0-2.65-0.438-3.5-1.318c-0.846-0.878-1.271-2.057-1.271-3.537c0-1.452,0.395-2.662,1.184-3.627
		c0.828-1.029,1.945-1.544,3.35-1.544c1.381,0,2.426,0.515,3.135,1.544C86.135,8.641,86.416,9.653,86.416,10.854L86.416,10.854z
		 M84.389,10.299c0.014-0.635-0.125-1.183-0.414-1.646C83.608,8.058,83.041,7.76,82.28,7.76c-0.695,0-1.262,0.291-1.695,0.874
		c-0.354,0.462-0.564,1.017-0.629,1.664L84.389,10.299L84.389,10.299z"/>
</g>
<g id="Shape_4_" transform="translate(36.849585, 5.171017)">
	<path fill="#FFFFFF" d="M12.594,4.891c0,1.182-0.352,2.073-1.056,2.668C10.887,8.11,9.96,8.388,8.761,8.388
		c-0.595,0-1.104-0.026-1.53-0.079V1.854c0.556-0.092,1.154-0.137,1.802-0.137c1.143,0,2.004,0.25,2.585,0.75
		C12.267,3.032,12.594,3.839,12.594,4.891L12.594,4.891z M11.491,4.921c0-0.766-0.202-1.353-0.604-1.762
		c-0.403-0.408-0.992-0.613-1.768-0.613c-0.33,0-0.61,0.021-0.843,0.068v4.907C8.405,7.541,8.64,7.55,8.982,7.55
		c0.801,0,1.419-0.224,1.854-0.671C11.271,6.431,11.491,5.778,11.491,4.921L11.491,4.921z"/>
	<path fill="#FFFFFF" d="M18.441,5.924c0,0.728-0.206,1.323-0.619,1.792c-0.434,0.48-1.008,0.721-1.724,0.721
		c-0.69,0-1.24-0.23-1.651-0.691c-0.409-0.461-0.613-1.043-0.613-1.742c0-0.734,0.21-1.335,0.634-1.801
		c0.423-0.467,0.992-0.701,1.708-0.701c0.691,0,1.246,0.23,1.666,0.69C18.241,4.638,18.441,5.217,18.441,5.924L18.441,5.924z
		 M17.356,5.958c0-0.438-0.094-0.811-0.28-1.125c-0.219-0.376-0.531-0.565-0.938-0.565c-0.42,0-0.739,0.189-0.958,0.565
		c-0.188,0.313-0.28,0.695-0.28,1.144c0,0.437,0.094,0.811,0.28,1.122c0.226,0.378,0.542,0.566,0.949,0.566
		c0.398,0,0.712-0.19,0.938-0.575C17.26,6.773,17.356,6.395,17.356,5.958L17.356,5.958z"/>
	<path fill="#FFFFFF" d="M26.283,3.596L24.81,8.328h-0.958l-0.609-2.054c-0.155-0.514-0.281-1.024-0.379-1.53h-0.019
		c-0.091,0.52-0.217,1.029-0.379,1.53l-0.647,2.054H20.85l-1.385-4.732h1.075l0.531,2.25c0.13,0.532,0.235,1.039,0.32,1.52h0.019
		c0.078-0.396,0.207-0.9,0.389-1.51l0.667-2.258h0.853l0.64,2.209c0.155,0.539,0.28,1.059,0.377,1.559h0.029
		c0.071-0.487,0.178-1.006,0.319-1.559l0.571-2.209h1.027V3.596z"/>
	<path fill="#FFFFFF" d="M31.705,8.328H30.66V5.619c0-0.835-0.316-1.253-0.948-1.253c-0.311,0-0.562,0.114-0.756,0.344
		c-0.193,0.23-0.291,0.502-0.291,0.811v2.808h-1.046V4.949c0-0.415-0.013-0.866-0.038-1.354h0.92l0.049,0.739h0.029
		c0.121-0.23,0.303-0.42,0.542-0.571c0.283-0.177,0.601-0.267,0.947-0.267c0.439,0,0.805,0.143,1.096,0.43
		c0.361,0.35,0.541,0.873,0.541,1.567V8.328L31.705,8.328z"/>
	<polygon fill="#FFFFFF" points="34.59,8.328 33.547,8.328 33.547,1.426 34.59,1.426 	"/>
	<path fill="#FFFFFF" d="M40.748,5.924c0,0.728-0.207,1.323-0.619,1.792c-0.434,0.48-1.008,0.721-1.725,0.721
		c-0.691,0-1.242-0.23-1.65-0.691S36.14,6.702,36.14,6.003c0-0.734,0.211-1.335,0.633-1.801c0.424-0.467,0.992-0.701,1.709-0.701
		c0.691,0,1.246,0.23,1.666,0.69C40.547,4.638,40.748,5.217,40.748,5.924L40.748,5.924z M39.662,5.958
		c0-0.438-0.092-0.811-0.281-1.125c-0.217-0.376-0.529-0.565-0.936-0.565c-0.422,0-0.74,0.189-0.959,0.565
		c-0.188,0.313-0.281,0.695-0.281,1.144c0,0.437,0.094,0.811,0.281,1.122c0.227,0.378,0.541,0.566,0.947,0.566
		c0.4,0,0.713-0.19,0.938-0.575C39.566,6.773,39.662,6.395,39.662,5.958L39.662,5.958z"/>
	<path fill="#FFFFFF" d="M45.811,8.328h-0.94l-0.078-0.544h-0.027c-0.322,0.435-0.781,0.652-1.375,0.652
		c-0.443,0-0.803-0.144-1.074-0.43c-0.244-0.259-0.367-0.58-0.367-0.963c0-0.578,0.238-1.018,0.721-1.324
		c0.48-0.305,1.158-0.456,2.029-0.448V5.184c0-0.623-0.326-0.936-0.979-0.936c-0.463,0-0.873,0.119-1.227,0.351l-0.211-0.69
		c0.438-0.271,0.977-0.408,1.613-0.408c1.23,0,1.847,0.652,1.847,1.958v1.743C45.743,7.673,45.766,8.051,45.811,8.328L45.811,8.328z
		 M44.724,6.702V5.974c-1.154-0.021-1.73,0.299-1.73,0.953c0,0.247,0.066,0.432,0.201,0.555s0.307,0.185,0.51,0.185
		c0.23,0,0.445-0.073,0.641-0.218c0.197-0.146,0.316-0.332,0.363-0.561C44.719,6.836,44.724,6.775,44.724,6.702L44.724,6.702z"/>
	<path fill="#FFFFFF" d="M51.755,8.328h-0.93l-0.049-0.76h-0.029c-0.295,0.579-0.801,0.868-1.51,0.868
		c-0.566,0-1.039-0.225-1.412-0.672c-0.375-0.447-0.563-1.029-0.563-1.743c0-0.765,0.203-1.386,0.609-1.859
		C48.266,3.72,48.751,3.5,49.325,3.5c0.631,0,1.074,0.214,1.324,0.643h0.021V1.426h1.045v5.627
		C51.716,7.515,51.729,7.939,51.755,8.328L51.755,8.328z M50.671,6.333V5.544c0-0.137-0.01-0.247-0.029-0.331
		c-0.059-0.254-0.186-0.467-0.379-0.638c-0.193-0.172-0.43-0.259-0.699-0.259c-0.391,0-0.695,0.156-0.92,0.469
		c-0.223,0.313-0.336,0.71-0.336,1.198c0,0.469,0.107,0.847,0.322,1.139c0.227,0.313,0.533,0.467,0.914,0.467
		c0.342,0,0.617-0.13,0.826-0.389C50.571,6.96,50.671,6.671,50.671,6.333L50.671,6.333z"/>
	<path fill="#FFFFFF" d="M60.7,5.924c0,0.728-0.207,1.323-0.619,1.792c-0.436,0.48-1.006,0.721-1.725,0.721
		c-0.689,0-1.24-0.23-1.65-0.691c-0.408-0.461-0.613-1.043-0.613-1.742c0-0.734,0.209-1.335,0.633-1.801
		c0.424-0.467,0.992-0.701,1.711-0.701c0.689,0,1.244,0.23,1.664,0.69C60.499,4.638,60.7,5.217,60.7,5.924L60.7,5.924z
		 M59.616,5.958c0-0.438-0.094-0.811-0.279-1.125c-0.221-0.376-0.533-0.565-0.939-0.565c-0.42,0-0.738,0.189-0.959,0.565
		c-0.188,0.313-0.281,0.695-0.281,1.144c0,0.437,0.094,0.811,0.281,1.122c0.225,0.378,0.541,0.566,0.947,0.566
		c0.4,0,0.715-0.19,0.939-0.575C59.518,6.773,59.616,6.395,59.616,5.958L59.616,5.958z"/>
	<path fill="#FFFFFF" d="M66.325,8.328h-1.047V5.619c0-0.835-0.314-1.253-0.947-1.253c-0.311,0-0.563,0.114-0.756,0.344
		c-0.193,0.23-0.289,0.502-0.289,0.811v2.808h-1.049V4.949c0-0.415-0.012-0.866-0.037-1.354h0.92l0.047,0.739h0.031
		c0.121-0.23,0.305-0.42,0.541-0.571c0.283-0.177,0.602-0.267,0.949-0.267c0.438,0,0.805,0.143,1.094,0.43
		c0.363,0.35,0.543,0.873,0.543,1.567V8.328L66.325,8.328z"/>
	<path fill="#FFFFFF" d="M73.362,4.385h-1.15v2.298c0,0.585,0.205,0.876,0.609,0.876c0.188,0,0.344-0.016,0.467-0.048l0.027,0.797
		c-0.207,0.079-0.479,0.117-0.813,0.117c-0.414,0-0.734-0.126-0.967-0.38c-0.234-0.252-0.35-0.678-0.35-1.275V4.385h-0.688V3.596
		h0.688V2.729l1.025-0.311v1.178h1.15V4.385L73.362,4.385z"/>
	<path fill="#FFFFFF" d="M78.901,8.328h-1.047V5.64c0-0.849-0.314-1.274-0.947-1.274c-0.484,0-0.816,0.246-0.998,0.737
		c-0.031,0.104-0.049,0.231-0.049,0.379v2.846h-1.045V1.426h1.045v2.852h0.02c0.328-0.52,0.803-0.778,1.414-0.778
		c0.432,0,0.791,0.142,1.076,0.429c0.354,0.355,0.531,0.887,0.531,1.587V8.328L78.901,8.328z"/>
	<path fill="#FFFFFF" d="M84.614,5.739c0,0.189-0.016,0.348-0.039,0.477h-3.139c0.016,0.468,0.164,0.824,0.455,1.07
		c0.266,0.223,0.607,0.332,1.027,0.332c0.465,0,0.887-0.074,1.268-0.224l0.164,0.731c-0.445,0.194-0.971,0.291-1.578,0.291
		c-0.729,0-1.303-0.217-1.719-0.647S80.43,6.759,80.43,6.032c0-0.713,0.193-1.307,0.58-1.782c0.404-0.506,0.953-0.759,1.645-0.759
		c0.678,0,1.191,0.253,1.537,0.759C84.475,4.652,84.614,5.149,84.614,5.739L84.614,5.739z M83.616,5.466
		c0.008-0.311-0.063-0.581-0.203-0.807c-0.182-0.291-0.459-0.439-0.832-0.439c-0.342,0-0.621,0.144-0.834,0.43
		c-0.174,0.229-0.275,0.5-0.311,0.817H83.616L83.616,5.466z"/>
</g>
</svg>
