<?xml version="1.0" encoding="utf-8"?>
<!-- Generator: Adobe Illustrator 16.0.0, SVG Export Plug-In . SVG Version: 6.00 Build 0)  -->
<!DOCTYPE svg PUBLIC "-//W3C//DTD SVG 1.1//EN" "http://www.w3.org/Graphics/SVG/1.1/DTD/svg11.dtd">
<svg version="1.1"
	 id="svg2" xmlns:cc="http://creativecommons.org/ns#" xmlns:svg="http://www.w3.org/2000/svg" xmlns:rdf="http://www.w3.org/1999/02/22-rdf-syntax-ns#" xmlns:sodipodi="http://sodipodi.sourceforge.net/DTD/sodipodi-0.dtd" xmlns:dc="http://purl.org/dc/elements/1.1/" xmlns:inkscape="http://www.inkscape.org/namespaces/inkscape" sodipodi:docname="google-play-badge.svg" inkscape:version="0.91 r13725"
	 xmlns="http://www.w3.org/2000/svg" xmlns:xlink="http://www.w3.org/1999/xlink" x="0px" y="0px" width="135.717px"
	 height="40.02px" viewBox="0 0 135.717 40.02" enable-background="new 0 0 135.717 40.02" xml:space="preserve">
<sodipodi:namedview  id="namedview4" inkscape:cy="29.61582" inkscape:cx="93.965168" inkscape:zoom="7.6276974" showgrid="false" guidetolerance="10" gridtolerance="10" objecttolerance="10" borderopacity="1" bordercolor="#666666" pagecolor="#ffffff" inkscape:current-layer="g10" inkscape:window-y="-8" inkscape:window-x="-8" inkscape:window-height="705" inkscape:window-width="1366" inkscape:pageshadow="2" inkscape:pageopacity="0" inkscape:window-maximized="1">
	</sodipodi:namedview>
<g id="Shape_2_" transform="translate(10.867901, 5.171017)">
	<path fill="#FFFFFF" d="M19.689,14.622c-0.028-3.236,2.634-4.809,2.756-4.883c-1.508-2.211-3.846-2.514-4.667-2.537
		c-1.963-0.207-3.867,1.181-4.868,1.181c-1.02,0-2.56-1.16-4.219-1.126c-2.137,0.033-4.135,1.275-5.23,3.207
		c-2.262,3.938-0.575,9.724,1.592,12.908c1.084,1.559,2.351,3.301,4.009,3.238c1.621-0.068,2.228-1.041,4.185-1.041
		c1.939,0,2.508,1.041,4.199,1.002c1.74-0.029,2.836-1.566,3.883-3.139c1.252-1.787,1.755-3.547,1.775-3.637
		C23.063,19.782,19.723,18.501,19.689,14.622L19.689,14.622z"/>
	<path fill="#FFFFFF" d="M16.495,5.109c0.873-1.098,1.47-2.59,1.305-4.105c-1.264,0.057-2.842,0.879-3.751,1.952
		c-0.805,0.946-1.523,2.495-1.338,3.954C14.129,7.015,15.586,6.188,16.495,5.109L16.495,5.109z"/>
</g>
<g id="Shape_3_" transform="translate(35.992618, 15.513052)">
	<path fill="#FFFFFF" d="M18.037,16.043h-2.267l-1.242-3.924h-4.315l-1.183,3.924H6.824l4.275-13.357h2.642L18.037,16.043
		L18.037,16.043z M14.155,10.475l-1.123-3.488c-0.119-0.357-0.341-1.195-0.67-2.517h-0.04c-0.131,0.568-0.341,1.408-0.63,2.517
		l-1.104,3.488H14.155L14.155,10.475z"/>
	<path fill="#FFFFFF" d="M29.033,11.11c0,1.637-0.439,2.934-1.32,3.883c-0.788,0.846-1.768,1.27-2.936,1.27
		c-1.263,0-2.168-0.455-2.721-1.367h-0.04v5.074h-2.128V9.582c0-1.029-0.026-2.086-0.078-3.17h1.871L21.8,7.938h0.039
		c0.71-1.15,1.787-1.725,3.232-1.725c1.13,0,2.073,0.449,2.827,1.348C28.656,8.461,29.033,9.643,29.033,11.11L29.033,11.11z
		 M26.865,11.188c0-0.938-0.209-1.709-0.63-2.318c-0.46-0.635-1.078-0.951-1.853-0.951c-0.525,0-1.002,0.176-1.429,0.525
		s-0.706,0.809-0.837,1.377c-0.066,0.266-0.099,0.48-0.099,0.652v1.605c0,0.701,0.213,1.291,0.641,1.775
		c0.427,0.482,0.982,0.725,1.664,0.725c0.802,0,1.426-0.313,1.872-0.934C26.642,13.024,26.865,12.205,26.865,11.188L26.865,11.188z"
		/>
	<path fill="#FFFFFF" d="M40.048,11.11c0,1.637-0.439,2.934-1.32,3.883c-0.787,0.846-1.766,1.27-2.936,1.27
		c-1.262,0-2.168-0.455-2.719-1.367h-0.041v5.074h-2.127V9.582c0-1.029-0.027-2.086-0.079-3.17h1.872l0.119,1.525h0.039
		c0.709-1.15,1.785-1.725,3.232-1.725c1.129,0,2.072,0.449,2.828,1.348C39.671,8.461,40.048,9.643,40.048,11.11L40.048,11.11z
		 M37.88,11.188c0-0.938-0.209-1.709-0.631-2.318c-0.461-0.635-1.076-0.951-1.852-0.951c-0.527,0-1.002,0.176-1.43,0.525
		c-0.426,0.35-0.705,0.809-0.836,1.377c-0.064,0.266-0.1,0.48-0.1,0.652v1.605c0,0.701,0.215,1.291,0.641,1.775
		c0.428,0.48,0.982,0.725,1.666,0.725c0.801,0,1.424-0.313,1.871-0.934S37.88,12.205,37.88,11.188L37.88,11.188z"/>
	<path fill="#FFFFFF" d="M52.366,12.297c0,1.137-0.393,2.061-1.18,2.775c-0.865,0.779-2.07,1.168-3.617,1.168
		c-1.431,0-2.575-0.275-3.444-0.83l0.494-1.785c0.934,0.568,1.958,0.854,3.075,0.854c0.803,0,1.426-0.184,1.875-0.545
		c0.445-0.363,0.668-0.854,0.668-1.459c0-0.543-0.184-1-0.553-1.371c-0.365-0.369-0.979-0.713-1.832-1.031
		c-2.325-0.873-3.487-2.15-3.487-3.832c0-1.098,0.408-1.998,1.223-2.699C46.4,2.841,47.483,2.49,48.84,2.49
		c1.209,0,2.211,0.212,3.014,0.635L51.323,4.87c-0.75-0.41-1.596-0.615-2.543-0.615c-0.748,0-1.334,0.186-1.752,0.556
		c-0.355,0.331-0.532,0.733-0.532,1.209c0,0.527,0.202,0.965,0.61,1.307c0.354,0.318,0.998,0.662,1.93,1.033
		c1.145,0.461,1.984,1.002,2.523,1.623C52.096,10.6,52.366,11.373,52.366,12.297L52.366,12.297z"/>
	<path fill="#FFFFFF" d="M59.401,8.018h-2.346v4.676c0,1.191,0.414,1.785,1.242,1.785c0.381,0,0.695-0.033,0.945-0.102l0.059,1.627
		c-0.42,0.156-0.971,0.236-1.654,0.236c-0.84,0-1.498-0.258-1.973-0.773c-0.471-0.516-0.709-1.381-0.709-2.596V8.016h-1.398V6.409
		h1.398V4.646l2.09-0.634v2.396h2.346V8.018L59.401,8.018z"/>
	<path fill="#FFFFFF" d="M69.985,11.149c0,1.48-0.422,2.695-1.264,3.646c-0.879,0.979-2.049,1.467-3.508,1.467
		c-1.404,0-2.523-0.469-3.359-1.406c-0.834-0.938-1.25-2.121-1.25-3.547c0-1.494,0.428-2.715,1.289-3.666
		c0.859-0.951,2.02-1.428,3.479-1.428c1.404,0,2.537,0.469,3.389,1.406C69.576,8.534,69.985,9.707,69.985,11.149L69.985,11.149z
		 M67.776,11.219c0-0.891-0.189-1.652-0.57-2.287c-0.447-0.77-1.084-1.152-1.91-1.152c-0.855,0-1.506,0.385-1.951,1.152
		c-0.383,0.637-0.57,1.41-0.57,2.326c0,0.889,0.188,1.65,0.57,2.285c0.459,0.77,1.102,1.15,1.932,1.15
		c0.813,0,1.449-0.391,1.91-1.172C67.578,12.873,67.776,12.106,67.776,11.219L67.776,11.219z"/>
	<path fill="#FFFFFF" d="M76.901,8.293c-0.211-0.039-0.436-0.059-0.672-0.059c-0.748,0-1.326,0.283-1.734,0.854
		c-0.354,0.502-0.531,1.137-0.531,1.902v5.053h-2.127l0.02-6.598c0-1.111-0.027-2.121-0.078-3.033h1.852l0.078,1.844h0.061
		c0.223-0.635,0.578-1.145,1.063-1.525c0.475-0.346,0.986-0.518,1.539-0.518c0.195,0,0.373,0.014,0.531,0.039V8.293L76.901,8.293z"
		/>
	<path fill="#FFFFFF" d="M86.416,10.772c0,0.385-0.023,0.707-0.076,0.971h-6.385c0.025,0.951,0.334,1.68,0.928,2.182
		c0.537,0.449,1.232,0.674,2.086,0.674c0.945,0,1.809-0.152,2.584-0.457l0.334,1.486c-0.908,0.398-1.977,0.596-3.211,0.596
		c-1.486,0-2.65-0.439-3.5-1.318c-0.846-0.879-1.271-2.057-1.271-3.537c0-1.453,0.395-2.662,1.184-3.627
		c0.828-1.029,1.945-1.545,3.35-1.545c1.381,0,2.426,0.516,3.135,1.545C86.135,8.559,86.416,9.571,86.416,10.772L86.416,10.772z
		 M84.389,10.217c0.014-0.635-0.125-1.182-0.414-1.645c-0.367-0.596-0.934-0.895-1.695-0.895c-0.695,0-1.262,0.291-1.695,0.875
		c-0.354,0.461-0.564,1.016-0.629,1.664H84.389L84.389,10.217z"/>
</g>
<g id="Shape_4_" transform="translate(36.849585, 5.171017)">
	<path fill="#FFFFFF" d="M12.594,4.81c0,1.182-0.352,2.072-1.056,2.668C10.887,8.028,9.96,8.306,8.761,8.306
		c-0.595,0-1.104-0.026-1.53-0.079V1.773c0.556-0.092,1.154-0.137,1.802-0.137c1.143,0,2.004,0.25,2.585,0.75
		C12.267,2.95,12.594,3.758,12.594,4.81L12.594,4.81z M11.491,4.839c0-0.766-0.202-1.353-0.604-1.762
		c-0.403-0.408-0.992-0.613-1.768-0.613c-0.33,0-0.61,0.021-0.843,0.068v4.906C8.405,7.459,8.64,7.468,8.982,7.468
		c0.801,0,1.419-0.224,1.854-0.671C11.271,6.349,11.491,5.696,11.491,4.839L11.491,4.839z"/>
	<path fill="#FFFFFF" d="M18.441,5.842c0,0.728-0.206,1.323-0.619,1.792c-0.434,0.48-1.008,0.721-1.724,0.721
		c-0.69,0-1.24-0.23-1.651-0.691c-0.409-0.461-0.613-1.043-0.613-1.742c0-0.733,0.21-1.335,0.634-1.801
		c0.423-0.467,0.992-0.701,1.708-0.701c0.691,0,1.246,0.23,1.666,0.69C18.241,4.557,18.441,5.136,18.441,5.842L18.441,5.842z
		 M17.356,5.876c0-0.438-0.094-0.811-0.28-1.124c-0.219-0.376-0.531-0.565-0.938-0.565c-0.42,0-0.739,0.189-0.958,0.565
		c-0.188,0.313-0.28,0.694-0.28,1.144c0,0.437,0.094,0.811,0.28,1.122c0.226,0.378,0.542,0.566,0.949,0.566
		c0.398,0,0.712-0.19,0.938-0.575C17.26,6.691,17.356,6.313,17.356,5.876L17.356,5.876z"/>
	<path fill="#FFFFFF" d="M26.283,3.515L24.81,8.246h-0.958l-0.609-2.054c-0.155-0.514-0.281-1.023-0.379-1.529h-0.019
		c-0.091,0.52-0.217,1.028-0.379,1.529l-0.647,2.054H20.85l-1.385-4.731h1.075l0.531,2.25c0.13,0.532,0.235,1.039,0.32,1.52h0.019
		c0.078-0.396,0.207-0.9,0.389-1.51l0.667-2.258h0.853l0.64,2.209c0.155,0.539,0.28,1.059,0.377,1.559h0.029
		c0.071-0.487,0.178-1.006,0.319-1.559l0.571-2.209h1.027V3.515z"/>
	<path fill="#FFFFFF" d="M31.705,8.246h-1.046V5.537c0-0.835-0.315-1.253-0.947-1.253c-0.311,0-0.562,0.114-0.756,0.344
		c-0.193,0.23-0.291,0.502-0.291,0.811v2.808h-1.046V4.867c0-0.415-0.013-0.866-0.038-1.354h0.92l0.049,0.739h0.029
		c0.121-0.23,0.303-0.42,0.542-0.571c0.283-0.177,0.601-0.267,0.947-0.267c0.439,0,0.805,0.143,1.096,0.43
		c0.361,0.35,0.541,0.873,0.541,1.566V8.246L31.705,8.246z"/>
	<polygon fill="#FFFFFF" points="34.59,8.246 33.547,8.246 33.547,1.345 34.59,1.345 	"/>
	<path fill="#FFFFFF" d="M40.748,5.842c0,0.728-0.207,1.323-0.619,1.792c-0.434,0.48-1.008,0.721-1.725,0.721
		c-0.691,0-1.242-0.23-1.65-0.691S36.14,6.62,36.14,5.921c0-0.733,0.211-1.335,0.633-1.801c0.424-0.467,0.992-0.701,1.709-0.701
		c0.691,0,1.246,0.23,1.666,0.69C40.547,4.557,40.748,5.136,40.748,5.842L40.748,5.842z M39.662,5.876
		c0-0.438-0.092-0.811-0.281-1.124c-0.217-0.376-0.529-0.565-0.936-0.565c-0.422,0-0.74,0.189-0.959,0.565
		c-0.188,0.313-0.281,0.694-0.281,1.144c0,0.437,0.094,0.811,0.281,1.122c0.227,0.378,0.541,0.566,0.947,0.566
		c0.4,0,0.713-0.19,0.938-0.575C39.566,6.691,39.662,6.313,39.662,5.876L39.662,5.876z"/>
	<path fill="#FFFFFF" d="M45.811,8.246h-0.94l-0.078-0.544h-0.027c-0.322,0.435-0.781,0.652-1.375,0.652
		c-0.443,0-0.803-0.144-1.074-0.43c-0.244-0.259-0.367-0.58-0.367-0.963c0-0.578,0.238-1.018,0.721-1.324
		c0.48-0.305,1.158-0.455,2.029-0.447V5.103c0-0.623-0.326-0.936-0.979-0.936c-0.463,0-0.873,0.119-1.227,0.351l-0.211-0.69
		c0.438-0.271,0.977-0.408,1.613-0.408c1.23,0,1.847,0.652,1.847,1.957v1.743C45.743,7.591,45.766,7.969,45.811,8.246L45.811,8.246z
		 M44.724,6.62V5.892c-1.154-0.021-1.73,0.299-1.73,0.953c0,0.247,0.066,0.432,0.201,0.555s0.307,0.185,0.51,0.185
		c0.23,0,0.445-0.073,0.641-0.218c0.197-0.146,0.316-0.332,0.363-0.561C44.719,6.754,44.724,6.693,44.724,6.62L44.724,6.62z"/>
	<path fill="#FFFFFF" d="M51.755,8.246h-0.93l-0.049-0.76h-0.029c-0.295,0.579-0.801,0.868-1.51,0.868
		c-0.566,0-1.039-0.225-1.412-0.672c-0.375-0.447-0.563-1.029-0.563-1.743c0-0.765,0.203-1.386,0.609-1.858
		c0.395-0.442,0.879-0.663,1.453-0.663c0.631,0,1.074,0.214,1.324,0.643h0.021V1.345h1.045v5.627
		C51.716,7.433,51.729,7.857,51.755,8.246L51.755,8.246z M50.671,6.251V5.462c0-0.137-0.01-0.246-0.029-0.33
		c-0.059-0.254-0.186-0.467-0.379-0.638c-0.193-0.172-0.43-0.259-0.699-0.259c-0.391,0-0.695,0.156-0.92,0.469
		c-0.223,0.313-0.336,0.71-0.336,1.197c0,0.469,0.107,0.847,0.322,1.139c0.227,0.313,0.533,0.467,0.914,0.467
		c0.342,0,0.617-0.13,0.826-0.389C50.571,6.878,50.671,6.589,50.671,6.251L50.671,6.251z"/>
	<path fill="#FFFFFF" d="M60.7,5.842c0,0.728-0.207,1.323-0.619,1.792c-0.436,0.48-1.006,0.721-1.725,0.721
		c-0.689,0-1.24-0.23-1.65-0.691c-0.408-0.461-0.613-1.043-0.613-1.742c0-0.733,0.209-1.335,0.633-1.801
		c0.424-0.467,0.992-0.701,1.711-0.701c0.689,0,1.244,0.23,1.664,0.69C60.499,4.557,60.7,5.136,60.7,5.842L60.7,5.842z
		 M59.616,5.876c0-0.438-0.094-0.811-0.279-1.124c-0.221-0.376-0.533-0.565-0.939-0.565c-0.42,0-0.738,0.189-0.959,0.565
		c-0.188,0.313-0.281,0.694-0.281,1.144c0,0.437,0.094,0.811,0.281,1.122c0.225,0.378,0.541,0.566,0.947,0.566
		c0.4,0,0.715-0.19,0.939-0.575C59.518,6.691,59.616,6.313,59.616,5.876L59.616,5.876z"/>
	<path fill="#FFFFFF" d="M66.325,8.246h-1.047V5.537c0-0.835-0.314-1.253-0.947-1.253c-0.311,0-0.563,0.114-0.756,0.344
		c-0.193,0.23-0.289,0.502-0.289,0.811v2.808h-1.049V4.867c0-0.415-0.012-0.866-0.037-1.354h0.92l0.047,0.739h0.031
		c0.121-0.23,0.305-0.42,0.541-0.571c0.283-0.177,0.602-0.267,0.949-0.267c0.438,0,0.805,0.143,1.094,0.43
		c0.363,0.35,0.543,0.873,0.543,1.566V8.246L66.325,8.246z"/>
	<path fill="#FFFFFF" d="M73.362,4.304h-1.15v2.298c0,0.585,0.205,0.876,0.609,0.876c0.188,0,0.344-0.016,0.467-0.048l0.027,0.797
		c-0.207,0.079-0.479,0.117-0.813,0.117c-0.414,0-0.734-0.126-0.967-0.38c-0.234-0.252-0.35-0.678-0.35-1.275V4.304h-0.688V3.515
		h0.688V2.648l1.025-0.311v1.178h1.15V4.304L73.362,4.304z"/>
	<path fill="#FFFFFF" d="M78.901,8.246h-1.047V5.558c0-0.849-0.314-1.273-0.947-1.273c-0.484,0-0.816,0.246-0.998,0.737
		c-0.031,0.104-0.049,0.231-0.049,0.379v2.846h-1.045V1.345h1.045v2.852h0.02c0.328-0.52,0.803-0.778,1.414-0.778
		c0.432,0,0.791,0.142,1.076,0.429c0.354,0.355,0.531,0.887,0.531,1.587V8.246L78.901,8.246z"/>
	<path fill="#FFFFFF" d="M84.614,5.657c0,0.189-0.016,0.348-0.039,0.477h-3.139c0.016,0.468,0.164,0.824,0.455,1.07
		c0.266,0.223,0.607,0.332,1.027,0.332c0.465,0,0.887-0.074,1.268-0.224l0.164,0.731c-0.445,0.194-0.971,0.291-1.578,0.291
		c-0.729,0-1.303-0.217-1.719-0.647S80.43,6.677,80.43,5.95c0-0.713,0.193-1.307,0.58-1.781c0.404-0.506,0.953-0.759,1.645-0.759
		c0.678,0,1.191,0.253,1.537,0.759C84.475,4.57,84.614,5.068,84.614,5.657L84.614,5.657z M83.616,5.384
		c0.008-0.311-0.063-0.58-0.203-0.807c-0.182-0.291-0.459-0.439-0.832-0.439c-0.342,0-0.621,0.144-0.834,0.43
		c-0.174,0.229-0.275,0.5-0.311,0.816H83.616L83.616,5.384z"/>
</g>
<path id="path16" inkscape:connector-curvature="0" fill="#FFFFFF" d="M130.684,0.937c2.317,0,4.229,1.913,4.229,4.227v29.9
	c0,2.316-1.911,4.228-4.229,4.228H5.034c-2.316-0.1-4.229-1.911-4.229-4.228v-29.9c0-2.314,1.913-4.227,4.229-4.227H130.684
	 M130.684,0.131H5.034C2.215,0.131,0,2.345,0,5.164v29.9c0,2.719,2.315,5.034,5.034,5.034h125.65c2.82,0,5.032-2.215,5.032-5.034
	v-29.9C135.818,2.345,133.505,0.131,130.684,0.131z"/>
<g id="g268">
</g>
</svg>
