<?xml version="1.0" encoding="utf-8"?>
<!-- Generator: Adobe Illustrator 16.0.0, SVG Export Plug-In . SVG Version: 6.00 Build 0)  -->
<!DOCTYPE svg PUBLIC "-//W3C//DTD SVG 1.1//EN" "http://www.w3.org/Graphics/SVG/1.1/DTD/svg11.dtd">
<svg version="1.1"
	 id="svg2" xmlns:cc="http://creativecommons.org/ns#" xmlns:svg="http://www.w3.org/2000/svg" xmlns:rdf="http://www.w3.org/1999/02/22-rdf-syntax-ns#" xmlns:sodipodi="http://sodipodi.sourceforge.net/DTD/sodipodi-0.dtd" xmlns:dc="http://purl.org/dc/elements/1.1/" xmlns:inkscape="http://www.inkscape.org/namespaces/inkscape" sodipodi:docname="google-play-badge.svg" inkscape:version="0.91 r13725"
	 xmlns="http://www.w3.org/2000/svg" xmlns:xlink="http://www.w3.org/1999/xlink" x="0px" y="0px" width="135.717px"
	 height="40.02px" viewBox="0 0 135.717 40.02" enable-background="new 0 0 135.717 40.02" xml:space="preserve">
<sodipodi:namedview  id="namedview4" inkscape:cy="29.61582" inkscape:cx="93.965168" inkscape:zoom="7.6276974" showgrid="false" guidetolerance="10" gridtolerance="10" objecttolerance="10" borderopacity="1" bordercolor="#666666" pagecolor="#ffffff" inkscape:current-layer="g10" inkscape:window-y="-8" inkscape:window-x="-8" inkscape:window-height="705" inkscape:window-width="1366" inkscape:pageshadow="2" inkscape:pageopacity="0" inkscape:window-maximized="1">
	</sodipodi:namedview>
<path d="M130.54,1.107c2.32,0,4.208,1.866,4.208,4.16v29.722c0,2.294-1.888,4.16-4.208,4.16H5.24c-2.32,0-4.209-1.866-4.209-4.16
	V5.267c0-2.294,1.889-4.16,4.209-4.16H130.54"/>
<g id="g18" transform="matrix(1,0,0,-1,0,48)">
	
		<path id="path20" inkscape:connector-curvature="0" fill="#FFFFFF" stroke="#FFFFFF" stroke-width="0.16" stroke-miterlimit="10" d="
		M47.76,37.537c0-0.827-0.251-1.489-0.744-1.983c-0.568-0.586-1.308-0.881-2.213-0.881c-0.866,0-1.605,0.3-2.212,0.891
		c-0.607,0.599-0.911,1.335-0.911,2.215c0,0.881,0.304,1.616,0.911,2.211c0.606,0.596,1.346,0.896,2.212,0.896
		c0.431,0,0.842-0.088,1.234-0.252c0.391-0.164,0.709-0.387,0.939-0.662l-0.524-0.522c-0.401,0.469-0.949,0.701-1.649,0.701
		c-0.632,0-1.18-0.219-1.645-0.658c-0.46-0.44-0.69-1.012-0.69-1.713c0-0.7,0.23-1.276,0.69-1.717
		c0.465-0.436,1.013-0.658,1.645-0.658c0.67,0,1.234,0.223,1.679,0.663c0.293,0.291,0.46,0.691,0.504,1.204h-2.183v0.716h2.912
		C47.749,37.832,47.76,37.682,47.76,37.537z"/>
</g>
<g id="g22" transform="matrix(1,0,0,-1,0,48)">
	
		<path id="path24" inkscape:connector-curvature="0" fill="#FFFFFF" stroke="#FFFFFF" stroke-width="0.16" stroke-miterlimit="10" d="
		M52.379,40.019h-2.735v-1.882h2.467v-0.716h-2.467v-1.883h2.735v-0.729H48.87v5.939h3.509V40.019z"/>
</g>
<g id="g26" transform="matrix(1,0,0,-1,0,48)">
	
		<path id="path28" inkscape:connector-curvature="0" fill="#FFFFFF" stroke="#FFFFFF" stroke-width="0.16" stroke-miterlimit="10" d="
		M55.639,34.809h-0.774v5.21h-1.678v0.729h4.131v-0.729h-1.679V34.809z"/>
</g>
<g id="g30" transform="matrix(1,0,0,-1,0,48)">
	
		<path id="path32" inkscape:connector-curvature="0" fill="#FFFFFF" stroke="#FFFFFF" stroke-width="0.16" stroke-miterlimit="10" d="
		M60.308,34.809v5.939h0.772v-5.939H60.308z"/>
</g>
<g id="g34" transform="matrix(1,0,0,-1,0,48)">
	
		<path id="path36" inkscape:connector-curvature="0" fill="#FFFFFF" stroke="#FFFFFF" stroke-width="0.16" stroke-miterlimit="10" d="
		M64.508,34.809H63.74v5.21h-1.685v0.729h4.137v-0.729h-1.685V34.809z"/>
</g>
<g id="g38" transform="matrix(1,0,0,-1,0,48)">
	
		<path id="path40" inkscape:connector-curvature="0" fill="#FFFFFF" stroke="#FFFFFF" stroke-width="0.16" stroke-miterlimit="10" d="
		M74.013,35.573c-0.593-0.601-1.327-0.9-2.203-0.9c-0.881,0-1.615,0.3-2.208,0.9c-0.591,0.6-0.886,1.335-0.886,2.205
		c0,0.871,0.295,1.606,0.886,2.206c0.593,0.601,1.327,0.9,2.208,0.9c0.871,0,1.605-0.3,2.198-0.905
		c0.596-0.604,0.891-1.335,0.891-2.201C74.899,36.908,74.604,36.173,74.013,35.573z M70.176,36.072
		c0.445-0.445,0.988-0.668,1.635-0.668c0.642,0,1.189,0.223,1.63,0.668c0.445,0.444,0.671,1.016,0.671,1.707
		c0,0.692-0.226,1.264-0.671,1.708c-0.44,0.444-0.988,0.668-1.63,0.668c-0.646,0-1.189-0.224-1.635-0.668s-0.671-1.016-0.671-1.708
		C69.505,37.087,69.73,36.516,70.176,36.072z"/>
</g>
<g id="g42" transform="matrix(1,0,0,-1,0,48)">
	
		<path id="path44" inkscape:connector-curvature="0" fill="#FFFFFF" stroke="#FFFFFF" stroke-width="0.16" stroke-miterlimit="10" d="
		M75.985,34.809v5.939h0.94l2.922-4.619h0.033l-0.033,1.142v3.478h0.772v-5.939h-0.807l-3.06,4.848h-0.034l0.034-1.146v-3.701
		H75.985z"/>
</g>
<path id="path46" inkscape:connector-curvature="0" fill="#FFFFFF" d="M68.526,21.865c-2.354,0-4.277,1.771-4.277,4.214
	c0,2.424,1.923,4.213,4.277,4.213c2.359,0,4.283-1.789,4.283-4.213C72.809,23.635,70.885,21.865,68.526,21.865L68.526,21.865z
	 M68.526,28.633c-1.292,0-2.403-1.054-2.403-2.554c0-1.52,1.111-2.555,2.403-2.555s2.408,1.035,2.408,2.555
	C70.934,27.579,69.818,28.633,68.526,28.633z M59.193,21.865c-2.359,0-4.278,1.771-4.278,4.214c0,2.424,1.919,4.213,4.278,4.213
	c2.357,0,4.277-1.789,4.277-4.213C63.47,23.635,61.551,21.865,59.193,21.865z M59.193,28.633c-1.293,0-2.408-1.054-2.408-2.554
	c0-1.52,1.115-2.555,2.408-2.555c1.292,0,2.403,1.035,2.403,2.555C61.596,27.579,60.485,28.633,59.193,28.633z M48.087,23.156v1.791
	h4.326c-0.127,1.001-0.465,1.736-0.983,2.249c-0.632,0.619-1.615,1.307-3.343,1.307c-2.663,0-4.748-2.124-4.748-4.756
	s2.085-4.755,4.748-4.755c1.439,0,2.486,0.556,3.26,1.276l1.277-1.262c-1.082-1.021-2.521-1.805-4.537-1.805
	c-3.651,0-6.72,2.937-6.72,6.545s3.068,6.545,6.72,6.545c1.973,0,3.455-0.639,4.621-1.838c1.193-1.18,1.565-2.839,1.565-4.18
	c0-0.416-0.035-0.799-0.098-1.118H48.087z M93.502,24.545c-0.352-0.942-1.438-2.68-3.65-2.68c-2.193,0-4.019,1.707-4.019,4.214
	c0,2.36,1.807,4.213,4.229,4.213c1.959,0,3.089-1.18,3.554-1.867l-1.453-0.957c-0.485,0.7-1.146,1.165-2.101,1.165
	c-0.948,0-1.629-0.43-2.064-1.276l5.702-2.332L93.502,24.545L93.502,24.545z M87.688,25.948c-0.049-1.625,1.277-2.457,2.227-2.457
	c0.744,0,1.376,0.367,1.586,0.894L87.688,25.948z M83.053,30.036h1.874V17.651h-1.874V30.036z M79.984,22.803h-0.063
	c-0.421-0.493-1.224-0.938-2.241-0.938c-2.135,0-4.087,1.853-4.087,4.228c0,2.361,1.952,4.199,4.087,4.199
	c1.018,0,1.82-0.449,2.241-0.957h0.063v0.604c0,1.611-0.871,2.477-2.276,2.477c-1.145,0-1.855-0.817-2.148-1.505l-1.63,0.673
	c0.47,1.117,1.714,2.491,3.778,2.491c2.198,0,4.053-1.277,4.053-4.388v-7.566h-1.776V22.803z M77.84,28.633
	c-1.292,0-2.373-1.068-2.373-2.54c0-1.484,1.081-2.568,2.373-2.568c1.273,0,2.277,1.084,2.277,2.568
	C80.117,27.564,79.113,28.633,77.84,28.633z M102.278,17.651h-4.483v12.385h1.87v-4.692h2.613c2.076,0,4.112-1.485,4.112-3.847
	C106.39,19.136,104.349,17.651,102.278,17.651z M102.327,23.621h-2.662v-4.247h2.662c1.396,0,2.192,1.146,2.192,2.123
	C104.519,22.455,103.722,23.621,102.327,23.621z M113.884,21.842c-1.351,0-2.756,0.589-3.333,1.896l1.659,0.688
	c0.356-0.688,1.014-0.91,1.707-0.91c0.97,0,1.954,0.575,1.969,1.593v0.13c-0.338-0.193-1.063-0.479-1.953-0.479
	c-1.787,0-3.607,0.972-3.607,2.786c0,1.66,1.463,2.729,3.108,2.729c1.258,0,1.952-0.562,2.389-1.214h0.063v0.957h1.806v-4.75
	C117.691,23.069,116.032,21.842,113.884,21.842z M113.658,28.628c-0.611,0-1.464-0.3-1.464-1.049c0-0.959,1.063-1.326,1.982-1.326
	c0.823,0,1.209,0.179,1.709,0.416C115.739,27.815,114.74,28.628,113.658,28.628z M124.269,22.112l-2.148,5.369h-0.064l-2.222-5.369
	h-2.016l3.338,7.503l-1.904,4.174h1.953l5.144-11.677H124.269z M107.418,30.036h1.875V17.651h-1.875V30.036z"/>
<g id="g48">
	
		<linearGradient id="path64_1_" gradientUnits="userSpaceOnUse" x1="327.0164" y1="-385.9441" x2="310.2336" y2="-369.1614" gradientTransform="matrix(1.0024 0 0 -0.9907 -305.7202 -351.0515)">
		<stop  offset="0" style="stop-color:#00A0FF"/>
		<stop  offset="0.0066" style="stop-color:#00A1FF"/>
		<stop  offset="0.2601" style="stop-color:#00BEFF"/>
		<stop  offset="0.5122" style="stop-color:#00D2FF"/>
		<stop  offset="0.7604" style="stop-color:#00DFFF"/>
		<stop  offset="1" style="stop-color:#00E3FF"/>
	</linearGradient>
	<path id="path64" inkscape:connector-curvature="0" fill="url(#path64_1_)" d="M10.688,7.783c-0.294,0.305-0.465,0.778-0.465,1.393
		v21.91c0,0.614,0.171,1.089,0.465,1.394l0.072,0.066l12.423-12.272v-0.29L10.76,7.711L10.688,7.783z"/>
</g>
<g id="g66">
	
		<linearGradient id="path78_1_" gradientUnits="userSpaceOnUse" x1="339.0525" y1="-374.6516" x2="314.8544" y2="-374.6516" gradientTransform="matrix(1.0024 0 0 -0.9907 -305.7202 -351.0515)">
		<stop  offset="0" style="stop-color:#FFE000"/>
		<stop  offset="0.4087" style="stop-color:#FFBD00"/>
		<stop  offset="0.7754" style="stop-color:#FFA500"/>
		<stop  offset="1" style="stop-color:#FF9C00"/>
	</linearGradient>
	<path id="path78" inkscape:connector-curvature="0" fill="url(#path78_1_)" d="M27.319,24.366l-4.136-4.093v-0.29l4.141-4.093
		l0.093,0.054l4.904,2.758c1.399,0.782,1.399,2.07,0,2.858l-4.904,2.753L27.319,24.366z"/>
</g>
<g id="g80">
	
		<linearGradient id="path88_1_" gradientUnits="userSpaceOnUse" x1="321.7009" y1="-380.7009" x2="298.9439" y2="-357.9439" gradientTransform="matrix(1.0024 0 0 -0.9907 -305.7202 -351.0515)">
		<stop  offset="0" style="stop-color:#FF3A44"/>
		<stop  offset="1" style="stop-color:#C31162"/>
	</linearGradient>
	<path id="path88" inkscape:connector-curvature="0" fill="url(#path88_1_)" d="M27.417,24.313l-4.233-4.185L10.688,32.479
		c0.465,0.482,1.223,0.541,2.085,0.058L27.417,24.313"/>
</g>
<g id="g90">
	
		<linearGradient id="path104_1_" gradientUnits="userSpaceOnUse" x1="304.1736" y1="-386.1331" x2="314.3362" y2="-375.9706" gradientTransform="matrix(1.0024 0 0 -0.9907 -305.7202 -351.0515)">
		<stop  offset="0" style="stop-color:#32A071"/>
		<stop  offset="0.0685" style="stop-color:#2DA771"/>
		<stop  offset="0.4762" style="stop-color:#15CF74"/>
		<stop  offset="0.8009" style="stop-color:#06E775"/>
		<stop  offset="1" style="stop-color:#00F076"/>
	</linearGradient>
	<path id="path104" inkscape:connector-curvature="0" fill="url(#path104_1_)" d="M27.417,15.944L12.773,7.719
		c-0.862-0.479-1.62-0.42-2.085,0.063l12.495,12.346L27.417,15.944z"/>
</g>
</svg>
