<?xml version="1.0" encoding="utf-8"?>
<!-- Generator: Adobe Illustrator 16.0.0, SVG Export Plug-In . SVG Version: 6.00 Build 0)  -->
<!DOCTYPE svg PUBLIC "-//W3C//DTD SVG 1.1//EN" "http://www.w3.org/Graphics/SVG/1.1/DTD/svg11.dtd">
<svg version="1.1"
	 id="svg2" xmlns:cc="http://creativecommons.org/ns#" xmlns:svg="http://www.w3.org/2000/svg" xmlns:rdf="http://www.w3.org/1999/02/22-rdf-syntax-ns#" xmlns:sodipodi="http://sodipodi.sourceforge.net/DTD/sodipodi-0.dtd" xmlns:dc="http://purl.org/dc/elements/1.1/" xmlns:inkscape="http://www.inkscape.org/namespaces/inkscape" sodipodi:docname="google-play-badge.svg" inkscape:version="0.91 r13725"
	 xmlns="http://www.w3.org/2000/svg" xmlns:xlink="http://www.w3.org/1999/xlink" x="0px" y="0px" width="135.717px"
	 height="40.02px" viewBox="0 0 135.717 40.02" enable-background="new 0 0 135.717 40.02" xml:space="preserve">
<sodipodi:namedview  id="namedview4" inkscape:cy="29.61582" inkscape:cx="93.965168" inkscape:zoom="7.6276974" showgrid="false" guidetolerance="10" gridtolerance="10" objecttolerance="10" borderopacity="1" bordercolor="#666666" pagecolor="#ffffff" inkscape:current-layer="g10" inkscape:window-y="-8" inkscape:window-x="-8" inkscape:window-height="705" inkscape:window-width="1366" inkscape:pageshadow="2" inkscape:pageopacity="0" inkscape:window-maximized="1">
	</sodipodi:namedview>
<g>
	<path id="path16" inkscape:connector-curvature="0" fill="#FFFFFF" d="M130.684,0.937c2.317,0,4.229,1.913,4.229,4.227v29.9
		c0,2.316-1.911,4.228-4.229,4.228H5.034c-2.316-0.1-4.229-1.911-4.229-4.228v-29.9c0-2.314,1.913-4.227,4.229-4.227H130.684
		 M130.684,0.131H5.034C2.215,0.131,0,2.345,0,5.164v29.9c0,2.719,2.315,5.034,5.034,5.034h125.65c2.82,0,5.032-2.215,5.032-5.034
		v-29.9C135.818,2.345,133.505,0.131,130.684,0.131z"/>
	<path id="path20_1_" inkscape:connector-curvature="0" fill="#FFFFFF" d="M47.672,10.399c0,0.807-0.302,1.511-0.704,2.015
		c-0.605,0.603-1.311,0.905-2.216,0.905c-0.907,0-1.61-0.302-2.215-0.905c-0.604-0.604-0.907-1.31-0.907-2.216
		c0-0.907,0.302-1.61,0.907-2.215c0.605-0.603,1.308-0.906,2.215-0.906c0.403,0,0.806,0.102,1.209,0.303
		c0.301,0,0.603,0.302,0.905,0.503l-0.504,0.503c-0.401-0.503-0.906-0.704-1.711-0.704c-0.603,0-1.21,0.201-1.611,0.704
		c-0.504,0.403-0.706,1.008-0.706,1.712s0.202,1.309,0.706,1.711c0.504,0.402,1.008,0.705,1.611,0.705
		c0.705,0,1.208-0.203,1.711-0.705c0.302-0.303,0.504-0.705,0.504-1.208h-2.215V9.897h2.92
		C47.572,10.098,47.672,10.198,47.672,10.399z"/>
	<path id="path24_1_" inkscape:connector-curvature="0" fill="#FFFFFF" d="M52.302,7.883h-2.716v1.913h2.515v0.706h-2.515v1.913
		h2.716v0.704h-3.522V7.178h3.522V7.883z"/>
	<path id="path28_1_" inkscape:connector-curvature="0" fill="#FFFFFF" d="M55.524,13.118h-0.805V7.883h-1.712V7.178h4.127v0.705
		h-1.711v5.235H55.524z"/>
	<path id="path32_1_" inkscape:connector-curvature="0" fill="#FFFFFF" d="M60.257,13.118V7.178h0.804v5.939H60.257z"/>
	<path id="path36_1_" inkscape:connector-curvature="0" fill="#FFFFFF" d="M64.485,13.118h-0.806V7.883h-1.71V7.178h4.127v0.705
		h-1.712C64.485,7.883,64.485,13.118,64.485,13.118z"/>
	<path id="path40_1_" inkscape:connector-curvature="0" fill="#FFFFFF" d="M74.048,12.312c-0.603,0.606-1.308,0.907-2.215,0.907
		c-0.906,0-1.61-0.301-2.216-0.907c-0.602-0.603-0.905-1.308-0.905-2.214c0-0.906,0.304-1.611,0.905-2.215
		c0.605-0.604,1.31-0.907,2.216-0.907c0.907,0,1.612,0.303,2.215,0.907c0.605,0.604,0.907,1.309,0.907,2.215
		C74.955,11.004,74.653,11.709,74.048,12.312z M70.222,11.809c0.401,0.402,1.008,0.705,1.61,0.705c0.605,0,1.209-0.203,1.612-0.705
		c0.402-0.402,0.703-1.007,0.703-1.711s-0.2-1.309-0.703-1.712c-0.403-0.403-1.007-0.704-1.612-0.704
		c-0.603,0-1.209,0.201-1.61,0.704c-0.403,0.403-0.705,1.008-0.705,1.712S69.719,11.407,70.222,11.809z"/>
	<path id="path44_1_" inkscape:connector-curvature="0" fill="#FFFFFF" d="M76.062,13.118V7.178h0.904l2.92,4.631l0,0v-1.107V7.178
		h0.807v5.939h-0.807l-3.12-4.832l0,0v1.108v3.724C76.868,13.118,76.062,13.118,76.062,13.118z"/>
	<path id="path46_1_" inkscape:connector-curvature="0" fill="#FFFFFF" d="M68.511,21.877c-2.416,0-4.329,1.813-4.329,4.228
		c0,2.417,1.913,4.229,4.329,4.229c2.415,0,4.327-1.813,4.327-4.229C72.839,23.589,70.927,21.877,68.511,21.877z M68.511,28.621
		c-1.31,0-2.416-1.106-2.416-2.617c0-1.51,1.106-2.616,2.416-2.616c1.308,0,2.415,1.007,2.415,2.616
		C70.927,27.615,69.819,28.621,68.511,28.621z M59.149,21.877c-2.417,0-4.33,1.813-4.33,4.228c0,2.417,1.913,4.229,4.33,4.229
		s4.329-1.813,4.329-4.229C63.477,23.589,61.566,21.877,59.149,21.877z M59.149,28.621c-1.309,0-2.417-1.106-2.417-2.617
		c0-1.51,1.108-2.616,2.417-2.616c1.31,0,2.417,1.007,2.417,2.616C61.566,27.615,60.458,28.621,59.149,28.621z M47.973,23.185v1.812
		h4.329c-0.099,1.007-0.501,1.714-1.005,2.215c-0.605,0.604-1.613,1.31-3.324,1.31c-2.717,0-4.731-2.115-4.731-4.832
		c0-2.719,2.115-4.833,4.731-4.833c1.411,0,2.519,0.605,3.324,1.309l1.307-1.309c-1.106-1.006-2.515-1.81-4.53-1.81
		c-3.725,0-6.744,2.918-6.744,6.543c0,3.623,3.12,6.544,6.744,6.544c2.015,0,3.524-0.604,4.631-1.813
		c1.208-1.206,1.611-2.819,1.611-4.228c0-0.402,0-0.807-0.099-1.107C54.115,23.185,47.973,23.185,47.973,23.185z M93.68,24.494
		c-0.403-0.905-1.41-2.719-3.726-2.719c-2.215,0-4.027,1.712-4.027,4.229c0,2.416,1.813,4.229,4.228,4.229
		c2.017,0,3.122-1.209,3.626-1.914l-1.511-1.006c-0.505,0.705-1.106,1.208-2.115,1.208c-0.905,0-1.61-0.402-2.112-1.31l5.738-2.313
		C93.881,24.997,93.68,24.494,93.68,24.494z M87.842,25.904c0-1.61,1.309-2.517,2.213-2.517c0.705,0,1.41,0.401,1.612,0.906
		C91.667,24.394,87.842,25.904,87.842,25.904z M83.21,30.031h1.913V17.648H83.21V30.031z M80.089,22.782L80.089,22.782
		c-0.504-0.503-1.31-0.905-2.315-0.905c-2.114,0-4.128,1.912-4.128,4.228c0,2.417,2.014,4.229,4.128,4.229
		c1.006,0,1.812-0.404,2.215-1.008h0.101v0.604c0,1.611-0.907,2.519-2.315,2.519c-1.107,0-1.913-0.807-2.114-1.512l-1.611,0.705
		c0.504,1.107,1.711,2.518,3.826,2.518c2.215,0,4.127-1.31,4.127-4.43v-7.65h-1.912V22.782z M77.874,28.621
		c-1.31,0-2.417-1.106-2.417-2.517c0-1.511,1.107-2.617,2.417-2.617c1.308,0,2.314,1.106,2.314,2.617S79.181,28.621,77.874,28.621z
		 M102.54,17.648h-4.53v12.383h1.912v-4.732h2.618c2.114,0,4.127-1.51,4.127-3.825C106.667,19.057,104.552,17.648,102.54,17.648z
		 M102.54,23.589h-2.719V19.36h2.719c1.407,0,2.213,1.108,2.213,2.114C104.753,22.48,103.947,23.589,102.54,23.589z M114.218,21.775
		c-1.409,0-2.818,0.604-3.324,1.914l1.712,0.705c0.403-0.705,1.008-0.907,1.714-0.907c1.005,0,2.013,0.604,2.013,1.611v0.101
		c-0.304-0.202-1.108-0.502-2.013-0.502c-1.813,0-3.627,1.004-3.627,2.817c0,1.711,1.511,2.719,3.123,2.719
		c1.309,0,2.013-0.604,2.416-1.209h0.101v1.007h1.812v-4.832C118.043,23.084,116.332,21.775,114.218,21.775z M114.016,28.621
		c-0.604,0-1.51-0.302-1.51-1.006c0-1.006,1.106-1.309,2.014-1.309c0.804,0,1.207,0.2,1.711,0.404
		C116.028,27.816,115.024,28.621,114.016,28.621z M124.687,22.079l-2.113,5.436h-0.102l-2.215-5.436h-2.015l3.323,7.55l-1.912,4.228
		h2.014l5.135-11.777C126.701,22.079,124.687,22.079,124.687,22.079z M107.675,30.031h1.912V17.648h-1.912V30.031z"/>
	<g>
		<path fill="#FFFFFF" d="M22.201,20.065l-12.182,12.08c-0.101-0.301-0.201-0.604-0.201-1.004V9.091
			c0-0.403,0.101-0.705,0.201-1.006L22.201,20.065z"/>
		<path fill="#FFFFFF" d="M32.067,21.574l-4.531,2.518l-4.026-3.927l4.026-3.925l4.531,2.517
			C33.476,19.461,33.476,20.77,32.067,21.574z"/>
		<path fill="#FFFFFF" d="M26.732,24.594l-14.296,8.056c-0.604,0.401-1.208,0.401-1.712,0.2l12.181-11.98L26.732,24.594z"/>
		<path fill="#FFFFFF" d="M26.732,15.635l-3.827,3.725L10.724,7.38c0.402-0.201,1.006-0.1,1.712,0.201L26.732,15.635z"/>
	</g>
</g>
<g id="g268">
</g>
</svg>
