<svg xmlns="http://www.w3.org/2000/svg" viewBox="0 0 100 75.29"><defs><style>.a{fill:#fff;}.b{fill:#1d3b54;}</style></defs><title>access_anywhere.ico</title><path class="a" d="M54,50.93H29.18l3.36-12.41H45.91c3.82,5.92,7.73,11.86,8,12.31C54,50.86,54,50.89,54,50.93Zm5.47-.1-.09.1h25L80,38.52H67.52C63.7,44.44,59.79,50.38,59.5,50.83Zm26.11,3.43H69.28l.9,14.06H90.64ZM27,54.26a1.67,1.67,0,0,1-1.61-2.1l3.69-13.64h-9L9.39,68.31H66.84l-.9-14.06Z"/><path class="b" d="M56.71,0A17.33,17.33,0,0,0,39.38,17.33a19.57,19.57,0,0,0,2.34,8.14c2.07,3.94,15,23.52,15,23.52s12.92-19.58,15-23.52A19.5,19.5,0,0,0,74,17.33,17.33,17.33,0,0,0,56.71,0Zm.08,23a6,6,0,1,1,6-6A6,6,0,0,1,56.79,23Z"/><path class="a" d="M99.76,72.76,85.05,33.35a1.66,1.66,0,0,0-1.56-1.08h-12c-.65,1-1.37,2.17-2.11,3.33H82.34L95.9,72H4.07L17.81,35.6H44c-.74-1.16-1.46-2.29-2.11-3.33H16.67a1.67,1.67,0,0,0-1.56,1.08L.11,73a1.66,1.66,0,0,0,1.56,2.25H98.3a1.67,1.67,0,0,0,1.45-2.53Z"/></svg>