<?xml version="1.0" encoding="utf-8"?>
<!-- Generator: Adobe Illustrator 16.0.0, SVG Export Plug-In . SVG Version: 6.00 Build 0)  -->
<!DOCTYPE svg PUBLIC "-//W3C//DTD SVG 1.1//EN" "http://www.w3.org/Graphics/SVG/1.1/DTD/svg11.dtd">
<svg version="1.1" id="Layer_1" xmlns="http://www.w3.org/2000/svg" xmlns:xlink="http://www.w3.org/1999/xlink" x="0px" y="0px"
	 width="200px" height="200px" viewBox="0 -35 200 200" enable-background="new 0 -35 200 200" xml:space="preserve">
<title>add_family_ico</title>
<path fill="#1D3B54" d="M125.992,98.059C114.71,93.245,99.48,84.35,92.375,81.674l-1.059-8.723c4.178-5.197,4.64-9.626,6.642-17.193
	c1.604-0.913,2.738-2.469,3.119-4.274l2.406-13.478c0.131-1.901-0.793-3.72-2.406-4.736C101.078,13.054,93.492,0,72.622,0
	C51.75,0,44.165,13.054,44.165,33.231c-1.612,1.015-2.53,2.837-2.387,4.736l2.407,13.478c0.338,1.842,1.463,3.445,3.081,4.39
	c1.925,7.586,2.464,12.014,6.643,17.194l-1.059,8.721c-7.085,2.6-22.161,11.957-33.405,16.771
	c-9.627,4.081-16.674,9.068-15.615,19.657c0.526,4.027,1.468,7.989,2.811,11.822h131.868c1.35-3.832,2.299-7.794,2.83-11.822
	C142.357,107.589,135.639,102.044,125.992,98.059z"/>
<path fill="#FFFFFF" d="M184.08,104.2c-11.437-6.546-26.031-12.149-28.553-16.597c2.079-5.006,11.783-1.213,18.349-4.641
	c1.136-0.596,1.31-1.539,0.366-3.1c-3.523-5.775-8.723-14.863-8.626-34.521c0.097-19.658-9.935-34.657-27.687-34.657
	s-27.668,14.979-27.668,34.657c0,17.944-4.428,22.412-8.625,30.613c-0.195,0.375-0.35,0.768-0.463,1.175
	c2.908,1.405,6.22,3.119,9.801,4.968c5.91,3.061,12.611,6.526,18.021,8.837s21.949,9.185,20.081,28.033
	c-0.45,3.743-1.249,7.438-2.388,11.032h46.633c1.61-4.012,2.604-8.244,2.945-12.553C196.461,111.382,193.572,109.648,184.08,104.2z"
	/>
</svg>
