<svg xmlns="http://www.w3.org/2000/svg" viewBox="0 0 100 100.01"><defs><style>.a{fill:#fff;}.a,.b{opacity:0.9;}.b{fill:#1d3b54;}</style></defs><title>add_other_ico</title><path class="a" d="M99.43,62l-21-12,21-12a1.13,1.13,0,0,0,.42-1.54L87,14a1.13,1.13,0,0,0-1.55-.42L64.06,25.8V1.13A1.13,1.13,0,0,0,62.93,0H37.07a1.13,1.13,0,0,0-1.14,1.13V25.8L14.49,13.59a1.14,1.14,0,0,0-1.55.43L.15,36.49A1.13,1.13,0,0,0,.57,38l21,12L.57,62a1.14,1.14,0,0,0-.43,1.55L12.94,86a1.15,1.15,0,0,0,1.55.43L35.93,74.2V98.88A1.13,1.13,0,0,0,37.07,100H62.93a1.13,1.13,0,0,0,1.14-1.13V74.21L85.49,86.42A1.14,1.14,0,0,0,87,86L99.85,63.53A1.13,1.13,0,0,0,99.43,62Z"/><path class="b" d="M50.86,15.4A3.61,3.61,0,0,1,54.47,19l-.19,8.36a10.38,10.38,0,0,0-6.9-3.18L47.26,19A3.61,3.61,0,0,1,50.86,15.4Z"/><path class="b" d="M36.87,34.72c0-5.14,4.16-8.06,8.45-8.46a12,12,0,0,1,2.09,0A7.91,7.91,0,0,1,53.66,30c1.28,2.24-.79,5.46-4.22,3.05a5.62,5.62,0,0,0-4.3-.6c-1.55.67-2.87,2.1-2.57,3.87.22,1.27,1.14,2.27,3.05,3.27l.14,6.53C41.15,44.12,36.87,41.38,36.87,34.72Z"/><path class="b" d="M54.1,35.28l-.12,6-.05,2.37-.14,6.16-.07,2.94L53.61,57c-1,.91-4.92,3.88-5.43,4.21L47.9,49l0-2.28-.13-6.17-.05-2.32-.08-3.82a1.26,1.26,0,0,1,.51.2,5.7,5.7,0,0,0,3.58,1.44A4.19,4.19,0,0,0,54.1,35.28Z"/><path class="b" d="M52.94,88.49a2.06,2.06,0,0,1-2.08,2.09,2.09,2.09,0,0,1-2.1-2.09s-.13-12.76-.13-12.91c0-3.45,2.12-5.22,4.75-7Z"/><path class="b" d="M55,88.83c0-.1.06-2.09.06-2.09a10.93,10.93,0,0,1,2.7,2.69C57.61,89.85,56.65,89.47,55,88.83Z"/><path class="b" d="M55,65c-.69.44-5.38,3.39-6.65,5.16a9.64,9.64,0,0,0-2,5.47l.16,7.22a15.39,15.39,0,0,1-3.81-10.3c0-2.85,2-5.89,4.08-7.65,2.46-2,9.64-6.22,9.94-9.16a5.89,5.89,0,0,0-1-4L56,45.1c3.48,2.28,6.1,3,6.07,7.27C62,56,59,62.45,55,65Z"/></svg>