<?xml version="1.0" encoding="utf-8"?>
<!-- Generator: Adobe Illustrator 16.0.0, SVG Export Plug-In . SVG Version: 6.00 Build 0)  -->
<!DOCTYPE svg PUBLIC "-//W3C//DTD SVG 1.1//EN" "http://www.w3.org/Graphics/SVG/1.1/DTD/svg11.dtd">
<svg version="1.1" id="Layer_1" xmlns="http://www.w3.org/2000/svg" xmlns:xlink="http://www.w3.org/1999/xlink" x="0px" y="0px"
	 width="200px" height="200px" viewBox="0 -35 200 200" enable-background="new 0 -35 200 200" xml:space="preserve">
<g>
	<title>complete_card_ico</title>
	<path fill="#1D3B54" d="M166.914,43.248c-6.239-34.324-39.122-57.09-73.446-50.85C76.396-4.498,61.351,5.493,51.867,20.025
		C24.253,22.053,2.37,44.783,2.37,72.319c0,28.915,24.01,52.452,53.535,52.452h9.179v-13h-9.198
		c-22.336,0-40.536-17.728-40.536-39.393c0-21.076,17.393-38.507,38.605-39.394c7.207-0.109,14.285,1.912,20.347,5.811
		c3.075,1.805,7.026,0.868,8.962-2.127c1.885-3.051,0.942-7.053-2.108-8.942c-4.432-2.74-9.253-4.792-14.299-6.086
		C76.448,10.63,90.348,4.327,104.95,4.366c25.92,0,47.724,19.697,49.615,44.948c0.266,3.103,2.694,5.581,5.791,5.909
		c15.582,1.365,27.108,15.104,25.744,30.688c-1.306,14.919-14.003,26.243-28.976,25.842h-18.691v12.96h17.569h1.122
		c22.845,0.108,41.451-18.323,41.56-41.166c0.091-19.199-13.041-35.937-31.71-40.417L166.914,43.248z"/>
	<path fill="#FFFFFF" d="M146.805,96.724c-0.269,2.392-2.389,4.135-4.786,3.938h-14.221v34.136c-0.258,2.313-2.308,4.005-4.63,3.82
		H80.31c-2.313,0.184-4.351-1.514-4.589-3.82v-34.115H61.46c-2.387,0.185-4.488-1.56-4.747-3.939
		c0.016-1.077,0.515-2.089,1.359-2.758l40.063-47.173c0.981-0.904,2.271-1.397,3.604-1.379c1.187-0.018,2.344,0.379,3.27,1.123
		c0.118,0,40.318,47.391,40.318,47.391C146.213,94.603,146.755,95.623,146.805,96.724z"/>
</g>
</svg>
