<svg xmlns="http://www.w3.org/2000/svg" viewBox="0 0 100 97.73"><defs><style>.a{fill:#1d3b54;}.b{fill:#fff;}</style></defs><title>hipaa.ico</title><path class="a" d="M94.72,59.08c.78-3.43,5.28-6.54,5.28-10.21s-4.5-6.78-5.28-10.21,1.88-8.29.33-11.49-7-4.11-9.2-6.9S84,12,81.18,9.77s-8-.67-11.27-2.24S64.67.91,61.13.11,53.67,3,50,3,42.3-.67,38.87.11,33.29,6,30.1,7.53s-8.48,0-11.27,2.24-2.45,7.69-4.69,10.5-7.63,3.65-9.2,6.9,1.14,7.95.33,11.49S0,45.2,0,48.87s4.5,6.78,5.27,10.21S3.4,67.37,4.94,70.56s7,4.11,9.2,6.9S16,85.72,18.82,88s8,.67,11.27,2.24,5.23,6.62,8.78,7.42S46.33,94.73,50,94.73s7.7,3.67,11.13,2.89,5.58-5.88,8.78-7.42,8.48,0,11.27-2.24,2.45-7.69,4.69-10.5,7.63-3.65,9.2-6.9S93.92,62.62,94.72,59.08ZM19.87,71.6a4.25,4.25,0,0,1-1.77.33,4.13,4.13,0,0,1-1.63-.31,3.58,3.58,0,0,1-1.25-.87,4,4,0,0,1-.8-1.35,5,5,0,0,1-.28-1.73,4.85,4.85,0,0,1,.3-1.73,4,4,0,0,1,.84-1.35,3.74,3.74,0,0,1,1.29-.88,4.29,4.29,0,0,1,1.66-.31,4,4,0,0,1,1.57.29,4,4,0,0,1,1.2.77l-.37.52a.32.32,0,0,1-.09.1.26.26,0,0,1-.15,0,.46.46,0,0,1-.26-.11,3.83,3.83,0,0,0-.4-.25,2.94,2.94,0,0,0-1.51-.37,3,3,0,0,0-1.18.22,2.58,2.58,0,0,0-.92.65,3,3,0,0,0-.6,1,4.14,4.14,0,0,0-.22,1.38,4,4,0,0,0,.22,1.39,3.07,3.07,0,0,0,.61,1,2.57,2.57,0,0,0,.91.64,2.91,2.91,0,0,0,1.14.22,4.72,4.72,0,0,0,.67,0,2.73,2.73,0,0,0,.55-.14,2.29,2.29,0,0,0,.47-.24,3.27,3.27,0,0,0,.43-.34.3.3,0,0,1,.2-.09.22.22,0,0,1,.16.08l.45.48A3.57,3.57,0,0,1,19.87,71.6Zm10.27-2.21a3.94,3.94,0,0,1-.84,1.35,3.74,3.74,0,0,1-1.3.88,4.68,4.68,0,0,1-3.36,0,3.74,3.74,0,0,1-1.3-.88,3.93,3.93,0,0,1-.84-1.35,5.13,5.13,0,0,1,0-3.44,4,4,0,0,1,.84-1.35,3.76,3.76,0,0,1,1.3-.88,4.63,4.63,0,0,1,3.36,0,3.76,3.76,0,0,1,1.3.88A4,4,0,0,1,30.14,66a5.13,5.13,0,0,1,0,3.44ZM41.2,71.84h-1V65.71c0-.08,0-.17,0-.26s0-.19,0-.29l-2.86,5.22a.43.43,0,0,1-.41.26H36.8a.43.43,0,0,1-.41-.26l-2.92-5.23c0,.1,0,.2,0,.3s0,.19,0,.27v6.13h-1V63.5h.83a.73.73,0,0,1,.23,0,.34.34,0,0,1,.16.16l2.88,5.13.13.29.13.31.12-.31q.06-.15.14-.29L40,63.69a.31.31,0,0,1,.15-.16.75.75,0,0,1,.24,0h.83Zm8-4.69a2.3,2.3,0,0,1-.6.83,2.77,2.77,0,0,1-1,.54,4.18,4.18,0,0,1-1.34.19H44.92v3.12H43.79V63.5h2.46a4.63,4.63,0,0,1,1.38.18,2.65,2.65,0,0,1,1,.52,2.1,2.1,0,0,1,.57.82,2.86,2.86,0,0,1,.19,1.07A2.71,2.71,0,0,1,49.16,67.15ZM56,71.84H51.25V63.5h1.12v7.39H56ZM52.25,26.29v5.32H47.78V26.31H42.45V21.83h5.31V16.5h4.49v5.31h5.32v4.49Zm6.58,45.55H57.7V63.5h1.13Zm8.51,0a.38.38,0,0,1-.24-.08.47.47,0,0,1-.14-.19l-.78-2H62.43l-.78,2a.41.41,0,0,1-.13.19.37.37,0,0,1-.24.08h-.87l3.34-8.34h1.14l3.34,8.34Zm9.2,0H76a.49.49,0,0,1-.22,0,.57.57,0,0,1-.18-.16l-4.83-6.28c0,.1,0,.19,0,.29s0,.18,0,.26v5.94h-1V63.5h.71l.09,0,.08.06.09.1L75.57,70c0-.1,0-.2,0-.29s0-.19,0-.27V63.5h1Zm8.24-7.39h-2.7v7.39H80.95V64.45H78.24V63.5h6.53Z"/><path class="a" d="M64.42,65l-.13-.43c0,.15-.08.29-.12.43a3.51,3.51,0,0,1-.13.35l-1.31,3.39h3.11l-1.31-3.39A3.54,3.54,0,0,1,64.42,65Z"/><path class="a" d="M28.48,65.26a2.58,2.58,0,0,0-.93-.65,3.39,3.39,0,0,0-2.44,0,2.61,2.61,0,0,0-.93.65,2.9,2.9,0,0,0-.6,1,4.63,4.63,0,0,0,0,2.76,2.89,2.89,0,0,0,.6,1,2.57,2.57,0,0,0,.93.65,3.43,3.43,0,0,0,2.44,0,2.54,2.54,0,0,0,.93-.65,2.91,2.91,0,0,0,.59-1,4.63,4.63,0,0,0,0-2.76A2.92,2.92,0,0,0,28.48,65.26Z"/><path class="a" d="M46.26,64.39H44.92v3.43h1.34a2.61,2.61,0,0,0,.85-.13,1.78,1.78,0,0,0,.62-.36,1.46,1.46,0,0,0,.38-.55,1.88,1.88,0,0,0,.13-.7,1.6,1.6,0,0,0-.49-1.25A2.16,2.16,0,0,0,46.26,64.39Z"/><path class="b" d="M25.88,57.87H21.7V50.3H14.43v7.57H10.25V40h4.18v7.49H21.7V40h4.18Z"/><path class="b" d="M35,57.87H30.82V40H35Z"/><path class="b" d="M44.1,51.88v6H39.94V40h6.32a10.42,10.42,0,0,1,3.25.45,6.25,6.25,0,0,1,2.24,1.24A4.81,4.81,0,0,1,53,43.5a6.29,6.29,0,0,1,.42,2.31A6.8,6.8,0,0,1,53,48.27a4.93,4.93,0,0,1-1.32,1.92,6.19,6.19,0,0,1-2.24,1.25,10.29,10.29,0,0,1-3.21.45Zm0-3.13h2.16a2.64,2.64,0,0,0,3-2.94,3.23,3.23,0,0,0-.18-1.12,2.28,2.28,0,0,0-.56-.87,2.52,2.52,0,0,0-.95-.56,4.19,4.19,0,0,0-1.36-.2H44.1Z"/><path class="b" d="M71.86,57.87H68.64a1.41,1.41,0,0,1-.87-.25,1.61,1.61,0,0,1-.5-.65l-1.06-3.12H59.4L58.34,57a1.49,1.49,0,0,1-.48.62,1.36,1.36,0,0,1-.87.28H53.75L60.68,40h4.25ZM60.36,51h4.89l-1.65-4.9q-.18-.47-.39-1.1t-.42-1.37q-.2.75-.4,1.39T62,46.14Z"/><path class="b" d="M90.82,57.87H87.6a1.41,1.41,0,0,1-.87-.25,1.61,1.61,0,0,1-.5-.65l-1.06-3.12H78.35L77.3,57a1.49,1.49,0,0,1-.48.62,1.36,1.36,0,0,1-.87.28H72.7L79.63,40h4.25ZM79.31,51H84.2l-1.65-4.9q-.18-.47-.39-1.1t-.42-1.37q-.2.75-.4,1.39T81,46.14Z"/></svg>