<svg xmlns="http://www.w3.org/2000/svg" viewBox="0 0 100 102.39"><defs><style>.a{fill:#fff;}.b{fill:#1d3b54;}</style></defs><title>immediate_access_ico</title><path class="a" d="M78.18,42.5l-1.66-2L58.92,52.75a6.89,6.89,0,1,0,4.3,5.08Z"/><path class="b" d="M85.48,26.82l4.09-6.15a10,10,0,0,0-9.7-6.44l-4,6.07A42.89,42.89,0,0,0,61.32,16V11.32a34.08,34.08,0,0,0,6.62-1.24V1.5c-6.4-2-16.78-2-23.18,0v8.59a35.33,35.33,0,0,0,7.45,1.31V16A43.31,43.31,0,0,0,21.34,34.16H32.92A34.49,34.49,0,1,1,31.45,82.5H20.33A43.26,43.26,0,1,0,85.48,26.82Z"/><rect class="a" x="14.54" y="41.26" width="29.03" height="5.51"/><rect class="a" x="5.29" y="55.58" width="29.03" height="5.51"/><rect class="a" y="69.9" width="29.03" height="5.51"/></svg>