<?xml version="1.0" encoding="utf-8"?>
<!-- Generator: Adobe Illustrator 16.0.0, SVG Export Plug-In . SVG Version: 6.00 Build 0)  -->
<!DOCTYPE svg PUBLIC "-//W3C//DTD SVG 1.1//EN" "http://www.w3.org/Graphics/SVG/1.1/DTD/svg11.dtd">
<svg version="1.1" id="Layer_1" xmlns="http://www.w3.org/2000/svg" xmlns:xlink="http://www.w3.org/1999/xlink" x="0px" y="0px"
	 width="100px" height="50px" viewBox="570 30 100 50" enable-background="new 570 30 100 50" xml:space="preserve">
<g>
	<g>
		<path fill="#8E979D" d="M651.536,59.715c0,3.731-1.1,6.896-3.296,9.508c-2.189,2.609-4.85,3.912-7.973,3.912
			c-1.244,0-2.721-0.353-4.428-1.051c-3.048,2.154-6.408,3.237-10.074,3.237c-3.051,0-5.795-0.751-8.23-2.263
			c-2.438-1.512-4.207-3.54-5.316-6.096c-2.611-0.951-4.658-2.487-6.144-4.613c-1.481-2.119-2.224-4.573-2.224-7.379
			c0-4.958,2.033-9.135,6.098-12.539c4.065-3.399,9.057-5.1,14.971-5.1c3.308,0,6.637,0.561,9.986,1.682
			c1.479-1.856,2.985-3.41,4.521-4.657c1.537-1.252,2.707-1.875,3.502-1.875c0.684,0,1.024,0.353,1.024,1.044
			c0,1.238-1.956,3.505-5.868,6.788c4.104,2.014,7.374,4.776,9.807,8.284C650.319,52.109,651.536,55.815,651.536,59.715z
			 M634.557,39.462c-2.762-0.951-5.51-1.431-8.233-1.431c-5.468,0-10.294,1.855-14.477,5.565c-4.184,3.711-6.275,7.983-6.275,12.819
			c0,4.578,2.102,7.813,6.299,9.701c-0.445-1.318-0.668-2.621-0.668-3.918c0-5.088,2.952-9.459,8.858-13.107
			c1.554-0.956,5.529-2.759,11.925-5.41C632.629,42.497,633.484,41.09,634.557,39.462z M631.461,44.796
			c-0.701,0.382-1.736,0.954-3.119,1.714c-9.654,5.327-14.482,11.382-14.482,18.172c0,0.612,0.078,1.333,0.231,2.163
			c1.187,0.127,1.981,0.189,2.39,0.189c1.279,0,2.688-0.221,4.223-0.668c-0.602-1.23-0.902-2.439-0.902-3.625
			c0-2.523,0.872-4.886,2.613-7.09c1.747-2.21,3.996-3.796,6.748-4.774C629.615,49.246,630.379,47.213,631.461,44.796z
			 M634.262,71.26c-1.01-0.713-1.729-1.344-2.156-1.896c-1.52,0.743-2.965,1.11-4.344,1.11c-2.779,0-5.019-1.195-6.709-3.58
			c-1.67,0.511-3.177,0.768-4.512,0.768c-0.607,0-1.36-0.064-2.275-0.189c0.779,2.136,2.172,3.862,4.179,5.174
			c2.011,1.313,4.261,1.971,6.749,1.971C628.168,74.617,631.191,73.5,634.262,71.26z M628.986,51.576
			c-2.313,1.127-4.186,2.741-5.623,4.84c-1.438,2.095-2.158,4.296-2.158,6.58c0,0.955,0.186,1.953,0.558,2.988
			c2.398-0.842,4.567-2.127,6.518-3.845c-0.238-1.29-0.354-2.43-0.354-3.43C627.926,56.608,628.28,54.232,628.986,51.576z
			 M631.692,69.014c-1.651-1.986-2.755-4.074-3.298-6.271c-2.007,1.65-4.12,2.918-6.342,3.807c1.148,2.254,3.186,3.377,6.112,3.377
			C629.288,69.926,630.467,69.622,631.692,69.014z M636.24,51.143c-1.066-0.299-2.08-0.448-3.047-0.448
			c-0.928,0-1.915,0.149-2.957,0.448c-0.546,2.25-0.824,4.902-0.824,7.958c0,0.737,0.018,1.39,0.059,1.935
			C632.402,58.092,634.657,54.791,636.24,51.143z M641.373,59.078c0-3.557-1.498-6.118-4.493-7.682
			c-1.854,4.008-4.303,7.471-7.351,10.373c0.254,2.695,1.168,5.004,2.741,6.92c2.629-1.754,3.967-3.809,4.026-6.182
			c0-0.59,0.195-0.887,0.583-0.887c0.442,0,0.665,0.258,0.665,0.763c0,0.904-0.502,2.046-1.501,3.431
			c-0.997,1.378-2.108,2.455-3.333,3.23c0.271,0.325,0.846,0.85,1.718,1.587l0.295,0.226c2.03-1.666,3.648-3.566,4.85-5.686
			C640.771,63.059,641.373,61.031,641.373,59.078z M650.131,58.398c0-3.729-1.089-7.127-3.262-10.2
			c-2.17-3.069-5.256-5.572-9.25-7.499c-1.363,1.079-3.057,2.231-5.078,3.455c-0.889,1.874-1.617,3.976-2.188,6.311
			c1.082-0.213,2.029-0.318,2.84-0.318c1.141,0,2.216,0.182,3.218,0.542c0.739-1.637,1.216-3.184,1.43-4.653
			c0.076-0.594,0.253-0.89,0.523-0.89c0.252,0,0.378,0.167,0.378,0.51c0,0.954-0.543,2.715-1.632,5.285
			c3.52,1.654,5.278,4.639,5.278,8.958c0,4.617-2.012,8.547-6.035,11.784c1.027,0.445,2.078,0.666,3.146,0.666
			c2.903,0,5.4-1.368,7.49-4.114C649.086,65.493,650.131,62.215,650.131,58.398z M637.006,40.442
			c-0.641-0.25-1.254-0.481-1.837-0.693c-0.78,1.013-1.519,2.154-2.22,3.425C633.982,42.623,635.333,41.713,637.006,40.442z
			 M643.404,33.538c0-0.338-0.154-0.51-0.467-0.51c-0.621,0-1.678,0.624-3.168,1.862c-1.491,1.237-2.908,2.675-4.252,4.314
			l0.232,0.127l0.613,0.187l0.76,0.413l0.38,0.129c1.519-1.138,2.884-2.372,4.094-3.706
			C642.803,35.019,643.404,34.079,643.404,33.538z"/>
	</g>
	<g>
		<path fill="#C88A12" d="M631.908,32.778c0,0.364-0.729,0.567-2.184,0.608c-1.633,0.044-2.715,0.586-3.248,1.62
			c-0.539,1.036-1.365,3.242-2.475,6.608c-1.928,5.892-3.64,10.899-5.136,15.025c-2.565,7.056-4.893,13.866-6.986,20.448
			c-0.167,0.57-0.379,0.855-0.634,0.855c-0.207,0-0.409-0.218-0.6-0.649c-0.191-0.433-0.751-1.944-1.68-4.549
			c-1.206-3.349-2.523-6.722-3.947-10.109c-1.123-2.664-2.226-5.415-3.303-8.256c-2.991,7.268-5.961,14.854-8.909,22.762
			c-0.169,0.538-0.38,0.802-0.632,0.802c-0.209,0-0.463-0.373-0.756-1.117c-1.326-3.178-6.242-16.355-14.75-39.53
			c-0.601-1.637-1.05-2.662-1.346-3.071c-0.303-0.411-1.052-0.637-2.248-0.679C571.023,33.458,570,33.159,570,32.64
			c0-0.391,0.341-0.583,1.024-0.583c0.302,0,0.556,0.018,0.771,0.06c2.264,0.116,4.703,0.176,7.311,0.176
			c0.514,0,1.402-0.043,2.662-0.119c1.26-0.079,2.896-0.117,4.906-0.117h0.706c0.729,0,1.091,0.196,1.091,0.593
			c0,0.489-0.656,0.754-1.972,0.796c-2.632,0.091-3.947,0.439-3.947,1.058c0,1.205,3.929,12.408,11.788,33.603
			c2.848-7.257,4.973-12.604,6.375-16.044l-6.352-16.506c-0.342-0.906-0.738-1.488-1.188-1.746
			c-0.445-0.262-1.269-0.412-2.463-0.456c-1.197-0.044-1.797-0.24-1.797-0.583c0-0.477,0.45-0.713,1.35-0.713
			c0.684,0,1.514,0.039,2.496,0.117c0.984,0.076,2.694,0.119,5.133,0.119h4.875h7.052c1.585,0,3.488-0.063,5.712-0.191
			c0.254-0.028,0.555-0.045,0.896-0.045c1.028,0,1.54,0.233,1.54,0.698c0,0.423-0.366,0.629-1.091,0.629h-1.092
			c-1.92,0-3.377,0.257-4.361,0.776c-0.429,0.214-1.219,1.757-2.371,4.636c-0.507,1.204-1.35,3.245-2.531,6.121
			c-0.264,0.647-0.662,1.604-1.188,2.886c0.299,0.859,1.239,3.243,2.826,7.16c2.053,4.987,3.744,9.267,5.069,12.836
			c2.389-6.964,5.201-15.201,8.442-24.707c1.719-5.065,2.578-7.88,2.578-8.439c0-0.823-0.75-1.234-2.252-1.234
			c-2.099,0-3.148-0.237-3.148-0.714c0-0.433,0.43-0.65,1.285-0.65c0.73,0,1.309,0.027,1.736,0.078
			c0.945,0.106,1.803,0.158,2.574,0.158h5.146c1.285,0,1.989,0.048,2.12,0.155C631.845,32.545,631.908,32.656,631.908,32.778z
			 M604.76,33.542h-0.769h-1.093c-1.537,0.085-2.309,0.368-2.309,0.844c0,0.086,1.265,3.83,3.791,11.231
			c0.974-2.154,2.114-4.994,3.426-8.525c0.178-0.474,0.441-1.098,0.795-1.873l0.135-0.516
			C608.736,33.93,607.41,33.542,604.76,33.542z"/>
		<path fill="#C88A12" d="M670,65.349c0,4.383-1.985,7.628-5.957,9.735c-1.926,1.033-4.682,1.674-8.268,1.936
			c-0.98,0.046-3.891,0.068-8.713,0.068h-7.817c-0.726,0-1.088-0.186-1.088-0.551s0.659-0.549,1.981-0.549
			c1.529,0,2.436-0.16,2.711-0.484c0.276-0.318,0.416-1.298,0.416-2.934v-34.9c0-1.89-0.085-2.986-0.254-3.291
			c-0.302-0.513-1.385-0.793-3.26-0.836c-1.15,0-1.725-0.218-1.725-0.658c0-0.396,0.537-0.59,1.605-0.59c0.043,0,0.297,0,0.77,0
			c0.47,0.103,0.896,0.155,1.284,0.155h12.517c4.619,0.042,8.064,0.817,10.332,2.321c2.653,1.766,3.977,4.319,3.977,7.673
			c0,2.924-1.093,5.324-3.274,7.192c-2.185,1.872-5.247,3.043-9.19,3.518v0.388c3.886,0.256,6.911,1.078,9.092,2.448
			C668.376,58.057,670,61.175,670,65.349z M661.478,43.116c0-4.122-0.945-6.868-2.836-8.244c-0.992-0.732-2.865-1.098-5.619-1.098
			c-0.733,0-1.876,0.067-3.427,0.197v18.672h0.583l3.552-0.13c2.451-0.084,4.36-0.956,5.717-2.607
			C660.8,48.256,661.478,45.989,661.478,43.116z M663.278,64.637c0-5.414-2.185-8.768-6.55-10.057
			c-1.286-0.389-3.664-0.583-7.133-0.583v19.22c0,1.248,0.129,1.957,0.387,2.127c0.428,0.303,1.627,0.45,3.598,0.45
			c2.953,0,5.309-0.944,7.064-2.833C662.398,71.07,663.278,68.293,663.278,64.637z"/>
	</g>
</g>
</svg>
