<svg xmlns="http://www.w3.org/2000/svg" xmlns:xlink="http://www.w3.org/1999/xlink" viewBox="0 0 273.86 73.84"><defs><style>.a{fill:#fff;}.b{fill:url(#a);}</style><linearGradient id="a" x1="202.16" y1="-2.79" x2="226.57" y2="62.05" gradientUnits="userSpaceOnUse"><stop offset="0" stop-color="#2ca9e1"/><stop offset="1" stop-color="#34b4b6"/></linearGradient></defs><title>Asset 1</title><path class="a" d="M63.32,7.81v65.1H58.07V15.1H57.9L34.08,72.91H29.16L5.34,15.27H5.17V72.91H0V7.81H7.71l23.91,58h.17l23.82-58Z"/><path class="a" d="M108.67,66.55c-4.07,4.66-9.32,7.29-16.7,7.29-13.73,0-22-10-22-24.08,0-13.14,7.71-23.31,20.52-23.31,12.38,0,19.75,9.49,19.75,22a28.64,28.64,0,0,1-.25,3.73H75.1c.85,9.92,7,17.21,17,17.21a15.37,15.37,0,0,0,12.8-6.1ZM105.2,47.82c-.34-9.66-5.6-17-14.75-17s-14.75,7-15.34,17Z"/><path class="a" d="M115,50.53c0-13.31,7.71-24.08,20.26-24.08,7.46,0,12.8,3.82,16.28,9.49h.17V7.81h5.09v65.1h-5l-.09-9.07h-.17c-3.56,6.19-9.32,10-16.62,10C122.4,73.84,115,63.25,115,50.53Zm36.88-.34c0-11.19-5.93-19.24-15.85-19.24-10.43,0-15.94,9-15.94,19.33,0,10.17,5.51,19.07,15.77,19.07C146,69.35,151.91,61.13,151.91,50.19Z"/><path class="b" d="M241.3,0H170.62V16.17l-.06,11.77h16.32V46.7H170.46l-.05,10.17V73H241.3c15.44,0,32.56-10.33,32.56-36.52S256.74,0,241.3,0Zm18,46.7H242.47V63.58H223.71V46.7H206.83V27.94h16.88V11.06h18.76V27.94h16.88Z"/></svg>